<svg version="1.1" viewBox="0.0 0.0 632.4514435695538 161.01049868766404" fill="none" stroke="none" stroke-linecap="square" stroke-miterlimit="10" xmlns:xlink="http://www.w3.org/1999/xlink" xmlns="http://www.w3.org/2000/svg"><clipPath id="p.0"><path d="m0 0l632.4514 0l0 161.0105l-632.4514 0l0 -161.0105z" clip-rule="nonzero"/></clipPath><g clip-path="url(#p.0)"><path fill="#000000" fill-opacity="0.0" d="m0 0l632.4514 0l0 161.0105l-632.4514 0z" fill-rule="evenodd"/><path fill="#eeece1" d="m41.165356 95.845146l34.834644 0l0 27.212593l-34.834644 0z" fill-rule="evenodd"/><path stroke="#1f497d" stroke-width="1.0" stroke-linejoin="round" stroke-linecap="butt" d="m41.165356 95.845146l34.834644 0l0 27.212593l-34.834644 0z" fill-rule="evenodd"/><path fill="#eeece1" d="m76.0 95.845146l34.83465 0l0 27.212593l-34.83465 0z" fill-rule="evenodd"/><path stroke="#1f497d" stroke-width="1.0" stroke-linejoin="round" stroke-linecap="butt" d="m76.0 95.845146l34.83465 0l0 27.212593l-34.83465 0z" fill-rule="evenodd"/><path fill="#eeece1" d="m110.83465 95.845146l34.83465 0l0 27.212593l-34.83465 0z" fill-rule="evenodd"/><path stroke="#1f497d" stroke-width="1.0" stroke-linejoin="round" stroke-linecap="butt" d="m110.83465 95.845146l34.83465 0l0 27.212593l-34.83465 0z" fill-rule="evenodd"/><path fill="#eeece1" d="m145.6693 95.845146l34.83464 0l0 27.212593l-34.83464 0z" fill-rule="evenodd"/><path stroke="#1f497d" stroke-width="1.0" stroke-linejoin="round" stroke-linecap="butt" d="m145.6693 95.845146l34.83464 0l0 27.212593l-34.83464 0z" fill-rule="evenodd"/><path fill="#eeece1" d="m180.50394 95.845146l34.83464 0l0 27.212593l-34.83464 0z" fill-rule="evenodd"/><path stroke="#1f497d" stroke-width="1.0" stroke-linejoin="round" stroke-linecap="butt" d="m180.50394 95.845146l34.83464 0l0 27.212593l-34.83464 0z" fill-rule="evenodd"/><path fill="#eeece1" d="m215.33858 95.845146l34.834656 0l0 27.212593l-34.834656 0z" fill-rule="evenodd"/><path stroke="#1f497d" stroke-width="1.0" stroke-linejoin="round" stroke-linecap="butt" d="m215.33858 95.845146l34.834656 0l0 27.212593l-34.834656 0z" fill-rule="evenodd"/><path fill="#eeece1" d="m250.17323 95.845146l34.83464 0l0 27.212593l-34.83464 0z" fill-rule="evenodd"/><path stroke="#1f497d" stroke-width="1.0" stroke-linejoin="round" stroke-linecap="butt" d="m250.17323 95.845146l34.83464 0l0 27.212593l-34.83464 0z" fill-rule="evenodd"/><path fill="#eeece1" d="m285.00787 95.845146l34.834656 0l0 27.212593l-34.834656 0z" fill-rule="evenodd"/><path stroke="#1f497d" stroke-width="1.0" stroke-linejoin="round" stroke-linecap="butt" d="m285.00787 95.845146l34.834656 0l0 27.212593l-34.834656 0z" fill-rule="evenodd"/><path fill="#eeece1" d="m319.84253 95.845146l34.834625 0l0 27.212593l-34.834625 0z" fill-rule="evenodd"/><path stroke="#1f497d" stroke-width="1.0" stroke-linejoin="round" stroke-linecap="butt" d="m319.84253 95.845146l34.834625 0l0 27.212593l-34.834625 0z" fill-rule="evenodd"/><path fill="#eeece1" d="m354.67715 95.845146l34.834656 0l0 27.212593l-34.834656 0z" fill-rule="evenodd"/><path stroke="#1f497d" stroke-width="1.0" stroke-linejoin="round" stroke-linecap="butt" d="m354.67715 95.845146l34.834656 0l0 27.212593l-34.834656 0z" fill-rule="evenodd"/><path fill="#eeece1" d="m389.5118 95.845146l34.834656 0l0 27.212593l-34.834656 0z" fill-rule="evenodd"/><path stroke="#1f497d" stroke-width="1.0" stroke-linejoin="round" stroke-linecap="butt" d="m389.5118 95.845146l34.834656 0l0 27.212593l-34.834656 0z" fill-rule="evenodd"/><path fill="#eeece1" d="m424.34647 95.845146l34.834625 0l0 27.212593l-34.834625 0z" fill-rule="evenodd"/><path stroke="#1f497d" stroke-width="1.0" stroke-linejoin="round" stroke-linecap="butt" d="m424.34647 95.845146l34.834625 0l0 27.212593l-34.834625 0z" fill-rule="evenodd"/><path fill="#eeece1" d="m459.1811 95.845146l34.834656 0l0 27.212593l-34.834656 0z" fill-rule="evenodd"/><path stroke="#1f497d" stroke-width="1.0" stroke-linejoin="round" stroke-linecap="butt" d="m459.1811 95.845146l34.834656 0l0 27.212593l-34.834656 0z" fill-rule="evenodd"/><path fill="#eeece1" d="m494.01575 95.845146l34.834656 0l0 27.212593l-34.834656 0z" fill-rule="evenodd"/><path stroke="#1f497d" stroke-width="1.0" stroke-linejoin="round" stroke-linecap="butt" d="m494.01575 95.845146l34.834656 0l0 27.212593l-34.834656 0z" fill-rule="evenodd"/><path fill="#eeece1" d="m528.8504 95.845146l34.834656 0l0 27.212593l-34.834656 0z" fill-rule="evenodd"/><path stroke="#1f497d" stroke-width="1.0" stroke-linejoin="round" stroke-linecap="butt" d="m528.8504 95.845146l34.834656 0l0 27.212593l-34.834656 0z" fill-rule="evenodd"/><path fill="#eeece1" d="m563.68506 95.845146l34.834656 0l0 27.212593l-34.834656 0z" fill-rule="evenodd"/><path stroke="#1f497d" stroke-width="1.0" stroke-linejoin="round" stroke-linecap="butt" d="m563.68506 95.845146l34.834656 0l0 27.212593l-34.834656 0z" fill-rule="evenodd"/><path fill="#000000" fill-opacity="0.0" d="m188.10498 29.451443l35.905518 0l0 42.01575l-35.905518 0z" fill-rule="evenodd"/><path fill="#000000" d="m198.33936 56.37144l0 -13.359375l1.640625 0l0 7.625l3.890625 -3.9375l2.109375 0l-3.6875 3.59375l4.0625 6.078125l-2.015625 0l-3.203125 -4.953125l-1.15625 1.125l0 3.828125l-1.640625 0z" fill-rule="nonzero"/><path fill="#000000" d="m211.07373 63.37144l-1.09375 0l0 -6.96875q-0.40625 0.375 -1.046875 0.75q-0.640625 0.375 -1.140625 0.578125l0 -1.0625q0.90625 -0.4375 1.59375 -1.046875q0.6875 -0.609375 0.96875 -1.1875l0.71875 0l0 8.9375z" fill-rule="nonzero"/><path fill="#000000" fill-opacity="0.0" d="m247.64305 34.56693l35.905502 0l0 42.01575l-35.905502 0z" fill-rule="evenodd"/><path fill="#000000" d="m257.8774 61.486927l0 -13.359375l1.640625 0l0 7.625l3.890625 -3.9375l2.109375 0l-3.6875 3.59375l4.0625 6.078125l-2.015625 0l-3.203125 -4.953125l-1.15625 1.125l0 3.828125l-1.640625 0z" fill-rule="nonzero"/><path fill="#000000" d="m272.2368 67.440056l0 1.046875l-5.890625 0q-0.015625 -0.390625 0.125 -0.765625q0.234375 -0.59375 0.71875 -1.171875q0.5 -0.59375 1.4375 -1.359375q1.453125 -1.1875 1.953125 -1.8750038q0.515625 -0.703125 0.515625 -1.3125q0 -0.65625 -0.46875 -1.09375q-0.453125 -0.453125 -1.203125 -0.453125q-0.796875 0 -1.265625 0.46875q-0.46875 0.46875 -0.484375 1.3125l-1.125 -0.109375q0.125 -1.265625 0.875 -1.921875q0.75 -0.65625 2.015625 -0.65625q1.28125 0 2.03125 0.71875q0.75 0.703125 0.75 1.75q0 0.53125 -0.21875 1.046875q-0.21875 0.515625 -0.734375 1.0937538q-0.5 0.5625 -1.671875 1.5625q-0.984375 0.828125 -1.265625 1.125q-0.28125 0.296875 -0.46875 0.59375l4.375 0z" fill-rule="nonzero"/><path fill="#000000" fill-opacity="0.0" d="m265.5958 76.58268l-32.850388 19.275589" fill-rule="evenodd"/><path stroke="#1f497d" stroke-width="1.0" stroke-linejoin="round" stroke-linecap="butt" d="m265.5958 76.58268l-27.675476 16.239113" fill-rule="evenodd"/><path fill="#1f497d" stroke="#1f497d" stroke-width="1.0" stroke-linecap="butt" d="m237.08441 91.39719l-3.0781403 3.7212448l4.7499695 -0.8720474z" fill-rule="evenodd"/><path fill="#000000" fill-opacity="0.0" d="m206.05774 71.46719l26.708664 24.377953" fill-rule="evenodd"/><path stroke="#1f497d" stroke-width="1.0" stroke-linejoin="round" stroke-linecap="butt" d="m206.05774 71.46719l22.27707 20.333076" fill-rule="evenodd"/><path fill="#1f497d" stroke="#1f497d" stroke-width="1.0" stroke-linecap="butt" d="m227.2213 93.02024l4.4653473 1.8393707l-2.238327 -4.2793045z" fill-rule="evenodd"/></g></svg>