<svg version="1.1" viewBox="0.0 0.0 918.0971128608924 508.70603674540683" fill="none" stroke="none" stroke-linecap="square" stroke-miterlimit="10" xmlns:xlink="http://www.w3.org/1999/xlink" xmlns="http://www.w3.org/2000/svg"><clipPath id="p.0"><path d="m0 0l918.0971 0l0 508.70602l-918.0971 0l0 -508.70602z" clip-rule="nonzero"/></clipPath><g clip-path="url(#p.0)"><path fill="#000000" fill-opacity="0.0" d="m0 0l918.0971 0l0 508.70602l-918.0971 0z" fill-rule="evenodd"/><path fill="#eeece1" d="m213.95538 240.4685l0 0c0 -12.037201 11.838013 -21.795273 26.440948 -21.795273l0 0c14.602921 0 26.440948 9.758072 26.440948 21.795273l0 0c0 12.037201 -11.838028 21.795288 -26.440948 21.795288l0 0c-14.602936 0 -26.440948 -9.758087 -26.440948 -21.795288z" fill-rule="evenodd"/><path stroke="#1f497d" stroke-width="1.0" stroke-linejoin="round" stroke-linecap="butt" d="m213.95538 240.4685l0 0c0 -12.037201 11.838013 -21.795273 26.440948 -21.795273l0 0c14.602921 0 26.440948 9.758072 26.440948 21.795273l0 0c0 12.037201 -11.838028 21.795288 -26.440948 21.795288l0 0c-14.602936 0 -26.440948 -9.758087 -26.440948 -21.795288z" fill-rule="evenodd"/><path fill="#000000" d="m234.7225 244.5085l2.21875 -0.1875q0.234375 1.609375 1.125 2.4375q0.90625 0.8125 2.171875 0.8125q1.53125 0 2.578125 -1.140625q1.0625 -1.15625 1.0625 -3.0625q0 -1.796875 -1.015625 -2.84375q-1.015625 -1.046875 -2.65625 -1.046875q-1.015625 0 -1.84375 0.46875q-0.8125 0.453125 -1.28125 1.203125l-1.984375 -0.265625l1.65625 -8.828125l8.546875 0l0 2.015625l-6.859375 0l-0.921875 4.625q1.546875 -1.078125 3.25 -1.078125q2.25 0 3.796875 1.5625q1.546875 1.546875 1.546875 4.0q0 2.328125 -1.359375 4.03125q-1.65625 2.09375 -4.515625 2.09375q-2.34375 0 -3.828125 -1.3125q-1.484375 -1.3125 -1.6875 -3.484375z" fill-rule="nonzero"/><path fill="#eeece1" d="m143.3937 305.29004l0 0c0 -12.037201 11.838013 -21.795288 26.440933 -21.795288l0 0c14.602936 0 26.440948 9.758087 26.440948 21.795288l0 0c0 12.03717 -11.838013 21.795258 -26.440948 21.795258l0 0c-14.602921 0 -26.440933 -9.758087 -26.440933 -21.795258z" fill-rule="evenodd"/><path stroke="#1f497d" stroke-width="1.0" stroke-linejoin="round" stroke-linecap="butt" d="m143.3937 305.29004l0 0c0 -12.037201 11.838013 -21.795288 26.440933 -21.795288l0 0c14.602936 0 26.440948 9.758087 26.440948 21.795288l0 0c0 12.03717 -11.838013 21.795258 -26.440948 21.795258l0 0c-14.602921 0 -26.440933 -9.758087 -26.440933 -21.795258z" fill-rule="evenodd"/><path fill="#000000" d="m167.41081 304.51752q-1.3125 -0.484375 -1.953125 -1.375q-0.625 -0.890625 -0.625 -2.140625q0 -1.875 1.34375 -3.140625q1.34375 -1.28125 3.578125 -1.28125q2.25 0 3.625 1.3125q1.375 1.296875 1.375 3.171875q0 1.203125 -0.625 2.09375q-0.625 0.875 -1.90625 1.359375q1.578125 0.515625 2.40625 1.671875q0.828125 1.140625 0.828125 2.734375q0 2.203125 -1.5625 3.703125q-1.5625 1.5 -4.09375 1.5q-2.546875 0 -4.109375 -1.5q-1.5625 -1.515625 -1.5625 -3.765625q0 -1.671875 0.84375 -2.796875q0.859375 -1.140625 2.4375 -1.546875zm-0.421875 -3.578125q0 1.21875 0.78125 2.0q0.78125 0.765625 2.03125 0.765625q1.21875 0 2.0 -0.765625q0.78125 -0.765625 0.78125 -1.890625q0 -1.15625 -0.8125 -1.9375q-0.796875 -0.796875 -1.984375 -0.796875q-1.203125 0 -2.0 0.78125q-0.796875 0.765625 -0.796875 1.84375zm-0.6875 7.9375q0 0.890625 0.421875 1.734375q0.4375 0.84375 1.28125 1.3125q0.84375 0.46875 1.8125 0.46875q1.515625 0 2.5 -0.96875q0.984375 -0.984375 0.984375 -2.484375q0 -1.515625 -1.015625 -2.515625q-1.015625 -1.0 -2.53125 -1.0q-1.5 0 -2.484375 0.984375q-0.96875 0.984375 -0.96875 2.46875z" fill-rule="nonzero"/><path fill="#eeece1" d="m288.2651 303.7257l0 0c0 -12.03717 11.838013 -21.795258 26.440918 -21.795258l0 0c14.602936 0 26.440948 9.758087 26.440948 21.795258l0 0c0 12.037201 -11.838013 21.795288 -26.440948 21.795288l0 0c-14.602905 0 -26.440918 -9.758087 -26.440918 -21.795288z" fill-rule="evenodd"/><path stroke="#1f497d" stroke-width="1.0" stroke-linejoin="round" stroke-linecap="butt" d="m288.2651 303.7257l0 0c0 -12.03717 11.838013 -21.795258 26.440918 -21.795258l0 0c14.602936 0 26.440948 9.758087 26.440948 21.795258l0 0c0 12.037201 -11.838013 21.795288 -26.440948 21.795288l0 0c-14.602905 0 -26.440918 -9.758087 -26.440918 -21.795288z" fill-rule="evenodd"/><path fill="#000000" d="m319.9697 299.29697l-2.09375 0.15625q-0.28125 -1.234375 -0.796875 -1.796875q-0.859375 -0.90625 -2.109375 -0.90625q-1.0 0 -1.765625 0.5625q-1.0 0.71875 -1.578125 2.125q-0.5625 1.390625 -0.59375 3.96875q0.765625 -1.15625 1.859375 -1.71875q1.109375 -0.5625 2.3125 -0.5625q2.109375 0 3.59375 1.546875q1.484375 1.546875 1.484375 4.015625q0 1.609375 -0.703125 3.0q-0.6875 1.390625 -1.90625 2.140625q-1.21875 0.734375 -2.765625 0.734375q-2.640625 0 -4.3125 -1.9375q-1.65625 -1.953125 -1.65625 -6.40625q0 -4.96875 1.84375 -7.234375q1.59375 -1.96875 4.3125 -1.96875q2.03125 0 3.328125 1.140625q1.296875 1.125 1.546875 3.140625zm-8.609375 7.40625q0 1.078125 0.453125 2.078125q0.46875 1.0 1.296875 1.53125q0.84375 0.515625 1.75 0.515625q1.34375 0 2.296875 -1.078125q0.96875 -1.078125 0.96875 -2.9375q0 -1.78125 -0.953125 -2.796875q-0.953125 -1.03125 -2.390625 -1.03125q-1.421875 0 -2.421875 1.03125q-1.0 1.015625 -1.0 2.6875z" fill-rule="nonzero"/><path fill="#eeece1" d="m94.7979 377.6916l0 0c0 -12.037201 11.83802 -21.795258 26.440948 -21.795258l0 0c14.602936 0 26.440948 9.758057 26.440948 21.795258l0 0c0 12.037201 -11.838013 21.795288 -26.440948 21.795288l0 0c-14.602928 0 -26.440948 -9.758087 -26.440948 -21.795288z" fill-rule="evenodd"/><path stroke="#1f497d" stroke-width="1.0" stroke-linejoin="round" stroke-linecap="butt" d="m94.7979 377.6916l0 0c0 -12.037201 11.83802 -21.795258 26.440948 -21.795258l0 0c14.602936 0 26.440948 9.758057 26.440948 21.795258l0 0c0 12.037201 -11.838013 21.795288 -26.440948 21.795288l0 0c-14.602928 0 -26.440948 -9.758087 -26.440948 -21.795288z" fill-rule="evenodd"/><path fill="#000000" d="m115.70564 371.2941l0 -2.015625l11.125 0l0 1.640625q-1.640625 1.734375 -3.265625 4.640625q-1.609375 2.890625 -2.484375 5.953125q-0.625 2.15625 -0.8125 4.71875l-2.15625 0q0.03125 -2.03125 0.78125 -4.890625q0.765625 -2.875 2.1875 -5.546875q1.4375 -2.671875 3.03125 -4.5l-8.40625 0z" fill-rule="nonzero"/><path fill="#eeece1" d="m185.88715 377.6916l0 0c0 -12.037201 11.838013 -21.795258 26.440933 -21.795258l0 0c14.602936 0 26.440948 9.758057 26.440948 21.795258l0 0c0 12.037201 -11.838013 21.795288 -26.440948 21.795288l0 0c-14.602921 0 -26.440933 -9.758087 -26.440933 -21.795288z" fill-rule="evenodd"/><path stroke="#1f497d" stroke-width="1.0" stroke-linejoin="round" stroke-linecap="butt" d="m185.88715 377.6916l0 0c0 -12.037201 11.838013 -21.795258 26.440933 -21.795258l0 0c14.602936 0 26.440948 9.758057 26.440948 21.795258l0 0c0 12.037201 -11.838013 21.795288 -26.440948 21.795288l0 0c-14.602921 0 -26.440933 -9.758087 -26.440933 -21.795288z" fill-rule="evenodd"/><path fill="#000000" d="m213.41988 386.2316l0 -4.109375l-7.453125 0l0 -1.9375l7.828125 -11.140625l1.734375 0l0 11.140625l2.3125 0l0 1.9375l-2.3125 0l0 4.109375l-2.109375 0zm0 -6.046875l0 -7.75l-5.390625 7.75l5.390625 0z" fill-rule="nonzero"/><path fill="#eeece1" d="m257.43045 375.74146l0 0c0 -12.03717 11.838013 -21.795258 26.440948 -21.795258l0 0c14.602936 0 26.440948 9.758087 26.440948 21.795258l0 0c0 12.037201 -11.838013 21.795288 -26.440948 21.795288l0 0c-14.602936 0 -26.440948 -9.758087 -26.440948 -21.795288z" fill-rule="evenodd"/><path stroke="#1f497d" stroke-width="1.0" stroke-linejoin="round" stroke-linecap="butt" d="m257.43045 375.74146l0 0c0 -12.03717 11.838013 -21.795258 26.440948 -21.795258l0 0c14.602936 0 26.440948 9.758087 26.440948 21.795258l0 0c0 12.037201 -11.838013 21.795288 -26.440948 21.795288l0 0c-14.602936 0 -26.440948 -9.758087 -26.440948 -21.795288z" fill-rule="evenodd"/><path fill="#000000" d="m289.2757 382.2502l0 2.03125l-11.34375 0q-0.03125 -0.765625 0.234375 -1.46875q0.4375 -1.15625 1.390625 -2.28125q0.953125 -1.125 2.765625 -2.609375q2.796875 -2.296875 3.78125 -3.625q0.984375 -1.34375 0.984375 -2.546875q0 -1.25 -0.90625 -2.109375q-0.890625 -0.859375 -2.328125 -0.859375q-1.515625 0 -2.4375 0.921875q-0.90625 0.90625 -0.921875 2.515625l-2.171875 -0.21875q0.21875 -2.421875 1.671875 -3.6875q1.453125 -1.28125 3.90625 -1.28125q2.46875 0 3.90625 1.375q1.453125 1.359375 1.453125 3.390625q0 1.03125 -0.421875 2.03125q-0.421875 1.0 -1.40625 2.109375q-0.96875 1.09375 -3.25 3.015625q-1.890625 1.59375 -2.4375 2.15625q-0.53125 0.5625 -0.890625 1.140625l8.421875 0z" fill-rule="nonzero"/><path fill="#eeece1" d="m64.03674 454.99606l0 0c0 -12.037201 11.838013 -21.795288 26.440948 -21.795288l0 0c14.602928 0 26.44094 9.758087 26.44094 21.795288l0 0c0 12.037201 -11.838013 21.795288 -26.44094 21.795288l0 0c-14.602936 0 -26.440948 -9.758087 -26.440948 -21.795288z" fill-rule="evenodd"/><path stroke="#1f497d" stroke-width="1.0" stroke-linejoin="round" stroke-linecap="butt" d="m64.03674 454.99606l0 0c0 -12.037201 11.838013 -21.795288 26.440948 -21.795288l0 0c14.602928 0 26.44094 9.758087 26.44094 21.795288l0 0c0 12.037201 -11.838013 21.795288 -26.44094 21.795288l0 0c-14.602936 0 -26.440948 -9.758087 -26.440948 -21.795288z" fill-rule="evenodd"/><path fill="#000000" d="m92.74136 463.53607l-2.109375 0l0 -13.4375q-0.75 0.71875 -2.0 1.453125q-1.234375 0.71875 -2.21875 1.078125l0 -2.03125q1.78125 -0.828125 3.09375 -2.015625q1.328125 -1.1875 1.875 -2.296875l1.359375 0l0 17.25z" fill-rule="nonzero"/><path fill="#eeece1" d="m327.29135 375.2021l0 0c0 -12.037201 11.838013 -21.795258 26.440918 -21.795258l0 0c14.602936 0 26.440948 9.758057 26.440948 21.795258l0 0c0 12.037201 -11.838013 21.795288 -26.440948 21.795288l0 0c-14.602905 0 -26.440918 -9.758087 -26.440918 -21.795288z" fill-rule="evenodd"/><path stroke="#1f497d" stroke-width="1.0" stroke-linejoin="round" stroke-linecap="butt" d="m327.29135 375.2021l0 0c0 -12.037201 11.838013 -21.795258 26.440918 -21.795258l0 0c14.602936 0 26.440948 9.758057 26.440948 21.795258l0 0c0 12.037201 -11.838013 21.795288 -26.440948 21.795288l0 0c-14.602905 0 -26.440918 -9.758087 -26.440918 -21.795288z" fill-rule="evenodd"/><path fill="#000000" d="m348.07407 379.21085l2.109375 -0.28125q0.359375 1.78125 1.234375 2.578125q0.875 0.796875 2.125 0.796875q1.484375 0 2.5 -1.03125q1.03125 -1.03125 1.03125 -2.5625q0 -1.453125 -0.953125 -2.390625q-0.9375 -0.953125 -2.40625 -0.953125q-0.59375 0 -1.484375 0.234375l0.234375 -1.84375q0.203125 0.015625 0.34375 0.015625q1.34375 0 2.421875 -0.703125q1.078125 -0.703125 1.078125 -2.15625q0 -1.171875 -0.796875 -1.921875q-0.78125 -0.765625 -2.015625 -0.765625q-1.234375 0 -2.0625 0.78125q-0.8125 0.765625 -1.046875 2.3125l-2.109375 -0.375q0.390625 -2.125 1.75 -3.28125q1.375 -1.171875 3.421875 -1.171875q1.40625 0 2.578125 0.609375q1.1875 0.59375 1.8125 1.640625q0.640625 1.046875 0.640625 2.21875q0 1.109375 -0.609375 2.03125q-0.59375 0.90625 -1.765625 1.4375q1.53125 0.359375 2.375 1.46875q0.84375 1.109375 0.84375 2.765625q0 2.25 -1.640625 3.828125q-1.640625 1.5625 -4.15625 1.5625q-2.265625 0 -3.765625 -1.34375q-1.484375 -1.359375 -1.6875 -3.5z" fill-rule="nonzero"/><path fill="#000000" fill-opacity="0.0" d="m221.69975 255.8801l-33.16536 33.984253" fill-rule="evenodd"/><path stroke="#1f497d" stroke-width="1.0" stroke-linejoin="round" stroke-linecap="butt" d="m221.69975 255.8801l-33.16536 33.984253" fill-rule="evenodd"/><path fill="#000000" fill-opacity="0.0" d="m259.0929 255.8801l36.91339 32.44095" fill-rule="evenodd"/><path stroke="#1f497d" stroke-width="1.0" stroke-linejoin="round" stroke-linecap="butt" d="m259.0929 255.8801l36.91339 32.44095" fill-rule="evenodd"/><path fill="#000000" fill-opacity="0.0" d="m151.13808 320.7016l-29.889763 35.18112" fill-rule="evenodd"/><path stroke="#1f497d" stroke-width="1.0" stroke-linejoin="round" stroke-linecap="butt" d="m151.13808 320.7016l-29.889763 35.18112" fill-rule="evenodd"/><path fill="#000000" fill-opacity="0.0" d="m188.53122 320.7016l23.81102 35.18112" fill-rule="evenodd"/><path stroke="#1f497d" stroke-width="1.0" stroke-linejoin="round" stroke-linecap="butt" d="m188.53122 320.7016l23.81102 35.18112" fill-rule="evenodd"/><path fill="#000000" fill-opacity="0.0" d="m333.40262 319.1373l20.314941 34.26773" fill-rule="evenodd"/><path stroke="#1f497d" stroke-width="1.0" stroke-linejoin="round" stroke-linecap="butt" d="m333.40262 319.1373l20.314941 34.26773" fill-rule="evenodd"/><path fill="#000000" fill-opacity="0.0" d="m296.00946 319.1373l-12.125977 34.80316" fill-rule="evenodd"/><path stroke="#1f497d" stroke-width="1.0" stroke-linejoin="round" stroke-linecap="butt" d="m296.00946 319.1373l-12.125977 34.80316" fill-rule="evenodd"/><path fill="#000000" fill-opacity="0.0" d="m102.542274 393.10318l-12.062996 40.094482" fill-rule="evenodd"/><path stroke="#1f497d" stroke-width="1.0" stroke-linejoin="round" stroke-linecap="butt" d="m102.542274 393.10318l-12.062996 40.094482" fill-rule="evenodd"/><path fill="#000000" fill-opacity="0.0" d="m123.779526 282.07874l0 0c0 -43.034714 52.943207 -77.92125 118.25197 -77.92125l0 0c65.30875 0 118.25198 34.886536 118.25198 77.92125l0 0c0 43.03473 -52.943237 77.921265 -118.25198 77.921265l0 0c-65.30876 0 -118.25197 -34.886536 -118.25197 -77.921265z" fill-rule="evenodd"/><path stroke="#ff0000" stroke-width="3.0" stroke-linejoin="round" stroke-linecap="butt" d="m123.779526 282.07874l0 0c0 -43.034714 52.943207 -77.92125 118.25197 -77.92125l0 0c65.30875 0 118.25198 34.886536 118.25198 77.92125l0 0c0 43.03473 -52.943237 77.921265 -118.25198 77.921265l0 0c-65.30876 0 -118.25197 -34.886536 -118.25197 -77.921265z" fill-rule="evenodd"/><path fill="#000000" fill-opacity="0.0" d="m183.50656 274.67453l28.062988 -25.700775" fill-rule="evenodd"/><path stroke="#1f497d" stroke-width="1.0" stroke-linejoin="round" stroke-linecap="butt" stroke-dasharray="1.0,3.0" d="m186.03392 272.35992l23.008286 -21.071564" fill-rule="evenodd"/><path fill="#1f497d" stroke="#1f497d" stroke-width="1.0" stroke-linecap="butt" d="m186.0339 272.35992l0.06982422 -1.5888672l-1.5190735 2.9161377l3.0381317 -1.2574463z" fill-rule="evenodd"/><path fill="#1f497d" stroke="#1f497d" stroke-width="1.0" stroke-linecap="butt" d="m209.0422 251.28836l-0.06980896 1.5888672l1.5190582 -2.9161224l-3.0381165 1.2574463z" fill-rule="evenodd"/><path fill="#cfe2f3" d="m38.692913 34.769028l36.913387 0l0 53.480316l-36.913387 0z" fill-rule="evenodd"/><path stroke="#000000" stroke-width="1.0" stroke-linejoin="round" stroke-linecap="butt" d="m38.692913 34.769028l36.913387 0l0 53.480316l-36.913387 0z" fill-rule="evenodd"/><path fill="#000000" d="m48.692913 65.54919l2.21875 -0.1875q0.234375 1.609375 1.125 2.4375q0.90625 0.8125 2.171875 0.8125q1.53125 0 2.578125 -1.140625q1.0625 -1.15625 1.0625 -3.0625q0 -1.7968788 -1.015625 -2.8437538q-1.015625 -1.046875 -2.65625 -1.046875q-1.015625 0 -1.84375 0.46875q-0.8125 0.453125 -1.28125 1.203125l-1.984375 -0.265625l1.65625 -8.828125l8.546875 0l0 2.015625l-6.859375 0l-0.921875 4.625q1.546875 -1.078125 3.25 -1.078125q2.25 0 3.796875 1.5625q1.546875 1.546875 1.546875 4.000004q0 2.328125 -1.359375 4.03125q-1.65625 2.09375 -4.515625 2.09375q-2.34375 0 -3.828125 -1.3125q-1.484375 -1.3125 -1.6875 -3.484375z" fill-rule="nonzero"/><path fill="#cfe2f3" d="m75.6063 34.769028l36.913383 0l0 53.480316l-36.913383 0z" fill-rule="evenodd"/><path stroke="#000000" stroke-width="1.0" stroke-linejoin="round" stroke-linecap="butt" d="m75.6063 34.769028l36.913383 0l0 53.480316l-36.913383 0z" fill-rule="evenodd"/><path fill="#000000" d="m88.8563 60.736683q-1.3125 -0.484375 -1.953125 -1.375q-0.625 -0.890625 -0.625 -2.140625q0 -1.875 1.34375 -3.140625q1.34375 -1.28125 3.578125 -1.28125q2.25 0 3.625 1.3125q1.375 1.296875 1.375 3.171875q0 1.203125 -0.625 2.09375q-0.625 0.875 -1.90625 1.359375q1.578125 0.515625 2.40625 1.671875q0.828125 1.140625 0.828125 2.7343788q0 2.203125 -1.5625 3.703125q-1.5625 1.5 -4.09375 1.5q-2.546875 0 -4.109375 -1.5q-1.5625 -1.515625 -1.5625 -3.765625q0 -1.6718788 0.84375 -2.7968788q0.859375 -1.140625 2.4375 -1.546875zm-0.421875 -3.578125q0 1.21875 0.78125 2.0q0.78125 0.765625 2.03125 0.765625q1.21875 0 2.0 -0.765625q0.78125 -0.765625 0.78125 -1.890625q0 -1.15625 -0.8125 -1.9375q-0.796875 -0.796875 -1.984375 -0.796875q-1.203125 0 -2.0 0.78125q-0.796875 0.765625 -0.796875 1.84375zm-0.6875 7.937504q0 0.890625 0.421875 1.734375q0.4375 0.84375 1.28125 1.3125q0.84375 0.46875 1.8125 0.46875q1.515625 0 2.5 -0.96875q0.984375 -0.984375 0.984375 -2.484375q0 -1.5156288 -1.015625 -2.5156288q-1.015625 -1.0 -2.53125 -1.0q-1.5 0 -2.484375 0.984375q-0.96875 0.984375 -0.96875 2.4687538z" fill-rule="nonzero"/><path fill="#cfe2f3" d="m112.519684 34.769028l36.91339 0l0 53.480316l-36.91339 0z" fill-rule="evenodd"/><path stroke="#000000" stroke-width="1.0" stroke-linejoin="round" stroke-linecap="butt" d="m112.519684 34.769028l36.91339 0l0 53.480316l-36.91339 0z" fill-rule="evenodd"/><path fill="#000000" d="m133.45718 57.080433l-2.09375 0.15625q-0.28125 -1.234375 -0.796875 -1.796875q-0.859375 -0.90625 -2.109375 -0.90625q-1.0 0 -1.765625 0.5625q-1.0 0.71875 -1.578125 2.125q-0.5625 1.390625 -0.59375 3.96875q0.765625 -1.15625 1.859375 -1.71875q1.109375 -0.5625 2.3125 -0.5625q2.109375 0 3.59375 1.546875q1.484375 1.546875 1.484375 4.015629q0 1.609375 -0.703125 3.0q-0.6875 1.390625 -1.90625 2.140625q-1.21875 0.734375 -2.765625 0.734375q-2.640625 0 -4.3125 -1.9375q-1.65625 -1.953125 -1.65625 -6.406254q0 -4.96875 1.84375 -7.234375q1.59375 -1.96875 4.3125 -1.96875q2.03125 0 3.328125 1.140625q1.296875 1.125 1.546875 3.140625zm-8.609375 7.406254q0 1.078125 0.453125 2.078125q0.46875 1.0 1.296875 1.53125q0.84375 0.515625 1.75 0.515625q1.34375 0 2.296875 -1.078125q0.96875 -1.078125 0.96875 -2.9375q0 -1.7812538 -0.953125 -2.7968788q-0.953125 -1.03125 -2.390625 -1.03125q-1.421875 0 -2.421875 1.03125q-1.0 1.015625 -1.0 2.6875038z" fill-rule="nonzero"/><path fill="#cfe2f3" d="m149.74803 34.769028l36.91339 0l0 53.480316l-36.91339 0z" fill-rule="evenodd"/><path stroke="#000000" stroke-width="1.0" stroke-linejoin="round" stroke-linecap="butt" d="m149.74803 34.769028l36.91339 0l0 53.480316l-36.91339 0z" fill-rule="evenodd"/><path fill="#000000" d="m159.88866 55.111683l0 -2.015625l11.125 0l0 1.640625q-1.640625 1.734375 -3.265625 4.640625q-1.609375 2.890625 -2.484375 5.953129q-0.625 2.15625 -0.8125 4.71875l-2.15625 0q0.03125 -2.03125 0.78125 -4.890625q0.765625 -2.8750038 2.1875 -5.546879q1.4375 -2.671875 3.03125 -4.5l-8.40625 0z" fill-rule="nonzero"/><path fill="#cfe2f3" d="m186.66142 34.769028l36.913376 0l0 53.480316l-36.913376 0z" fill-rule="evenodd"/><path stroke="#000000" stroke-width="1.0" stroke-linejoin="round" stroke-linecap="butt" d="m186.66142 34.769028l36.913376 0l0 53.480316l-36.913376 0z" fill-rule="evenodd"/><path fill="#000000" d="m203.42705 70.04919l0 -4.109375l-7.453125 0l0 -1.9375l7.828125 -11.140629l1.734375 0l0 11.140629l2.3125 0l0 1.9375l-2.3125 0l0 4.109375l-2.109375 0zm0 -6.046875l0 -7.750004l-5.390625 7.750004l5.390625 0z" fill-rule="nonzero"/><path fill="#cfe2f3" d="m223.5748 34.769028l36.91339 0l0 53.480316l-36.91339 0z" fill-rule="evenodd"/><path stroke="#000000" stroke-width="1.0" stroke-linejoin="round" stroke-linecap="butt" d="m223.5748 34.769028l36.91339 0l0 53.480316l-36.91339 0z" fill-rule="evenodd"/><path fill="#000000" d="m244.65292 68.01794l0 2.03125l-11.34375 0q-0.03125 -0.765625 0.234375 -1.46875q0.4375 -1.15625 1.390625 -2.28125q0.953125 -1.125 2.765625 -2.6093788q2.796875 -2.296875 3.78125 -3.625q0.984375 -1.34375 0.984375 -2.546875q0 -1.25 -0.90625 -2.109375q-0.890625 -0.859375 -2.328125 -0.859375q-1.515625 0 -2.4375 0.921875q-0.90625 0.90625 -0.921875 2.515625l-2.171875 -0.21875q0.21875 -2.421875 1.671875 -3.6875q1.453125 -1.28125 3.90625 -1.28125q2.46875 0 3.90625 1.375q1.453125 1.359375 1.453125 3.390625q0 1.03125 -0.421875 2.03125q-0.421875 1.0 -1.40625 2.109375q-0.96875 1.09375 -3.25 3.0156288q-1.890625 1.59375 -2.4375 2.15625q-0.53125 0.5625 -0.890625 1.140625l8.421875 0z" fill-rule="nonzero"/><path fill="#cfe2f3" d="m260.80316 34.769028l36.91336 0l0 53.480316l-36.91336 0z" fill-rule="evenodd"/><path stroke="#000000" stroke-width="1.0" stroke-linejoin="round" stroke-linecap="butt" d="m260.80316 34.769028l36.91336 0l0 53.480316l-36.91336 0z" fill-rule="evenodd"/><path fill="#000000" d="m270.8188 65.51794l2.109375 -0.28125q0.359375 1.78125 1.234375 2.578125q0.875 0.796875 2.125 0.796875q1.484375 0 2.5 -1.03125q1.03125 -1.03125 1.03125 -2.5625q0 -1.4531288 -0.953125 -2.3906288q-0.9375 -0.953125 -2.40625 -0.953125q-0.59375 0 -1.484375 0.234375l0.234375 -1.84375q0.203125 0.015625 0.34375 0.015625q1.34375 0 2.421875 -0.703125q1.078125 -0.703125 1.078125 -2.15625q0 -1.171875 -0.796875 -1.921875q-0.78125 -0.765625 -2.015625 -0.765625q-1.234375 0 -2.0625 0.78125q-0.8125 0.765625 -1.046875 2.3125l-2.109375 -0.375q0.390625 -2.125 1.75 -3.28125q1.375 -1.171875 3.421875 -1.171875q1.40625 0 2.578125 0.609375q1.1875 0.59375 1.8125 1.640625q0.640625 1.046875 0.640625 2.21875q0 1.109375 -0.609375 2.03125q-0.59375 0.90625 -1.765625 1.4375q1.53125 0.359375 2.375 1.46875q0.84375 1.109375 0.84375 2.7656288q0 2.25 -1.640625 3.828125q-1.640625 1.5625 -4.15625 1.5625q-2.265625 0 -3.765625 -1.34375q-1.484375 -1.359375 -1.6875 -3.5z" fill-rule="nonzero"/><path fill="#cfe2f3" d="m297.71652 34.769028l36.91339 0l0 53.480316l-36.91339 0z" fill-rule="evenodd"/><path stroke="#000000" stroke-width="1.0" stroke-linejoin="round" stroke-linecap="butt" d="m297.71652 34.769028l36.91339 0l0 53.480316l-36.91339 0z" fill-rule="evenodd"/><path fill="#000000" d="m315.65402 70.04919l-2.109375 0l0 -13.437504q-0.75 0.71875 -2.0 1.453125q-1.234375 0.71875 -2.21875 1.078125l0 -2.03125q1.78125 -0.828125 3.09375 -2.015625q1.328125 -1.1875 1.875 -2.296875l1.359375 0l0 17.250004z" fill-rule="nonzero"/><path fill="#eeece1" d="m693.1942 247.72704l0 0c0 -12.037201 11.838013 -21.795273 26.440979 -21.795273l0 0c14.602905 0 26.440918 9.758072 26.440918 21.795273l0 0c0 12.037186 -11.838013 21.795273 -26.440918 21.795273l0 0c-14.602966 0 -26.440979 -9.758087 -26.440979 -21.795273z" fill-rule="evenodd"/><path stroke="#1f497d" stroke-width="1.0" stroke-linejoin="round" stroke-linecap="butt" d="m693.1942 247.72704l0 0c0 -12.037201 11.838013 -21.795273 26.440979 -21.795273l0 0c14.602905 0 26.440918 9.758072 26.440918 21.795273l0 0c0 12.037186 -11.838013 21.795273 -26.440918 21.795273l0 0c-14.602966 0 -26.440979 -9.758087 -26.440979 -21.795273z" fill-rule="evenodd"/><path fill="#000000" d="m717.21136 246.95453q-1.3125 -0.484375 -1.953125 -1.375q-0.625 -0.890625 -0.625 -2.140625q0 -1.875 1.34375 -3.140625q1.34375 -1.28125 3.578125 -1.28125q2.25 0 3.625 1.3125q1.375 1.296875 1.375 3.171875q0 1.203125 -0.625 2.09375q-0.625 0.875 -1.90625 1.359375q1.578125 0.515625 2.40625 1.671875q0.828125 1.140625 0.828125 2.734375q0 2.203125 -1.5625 3.703125q-1.5625 1.5 -4.09375 1.5q-2.546875 0 -4.109375 -1.5q-1.5625 -1.515625 -1.5625 -3.765625q0 -1.671875 0.84375 -2.796875q0.859375 -1.140625 2.4375 -1.546875zm-0.421875 -3.578125q0 1.21875 0.78125 2.0q0.78125 0.765625 2.03125 0.765625q1.21875 0 2.0 -0.765625q0.78125 -0.765625 0.78125 -1.890625q0 -1.15625 -0.8125 -1.9375q-0.796875 -0.796875 -1.984375 -0.796875q-1.203125 0 -2.0 0.78125q-0.796875 0.765625 -0.796875 1.84375zm-0.6875 7.9375q0 0.890625 0.421875 1.734375q0.4375 0.84375 1.28125 1.3125q0.84375 0.46875 1.8125 0.46875q1.515625 0 2.5 -0.96875q0.984375 -0.984375 0.984375 -2.484375q0 -1.515625 -1.015625 -2.515625q-1.015625 -1.0 -2.53125 -1.0q-1.5 0 -2.484375 0.984375q-0.96875 0.984375 -0.96875 2.46875z" fill-rule="nonzero"/><path fill="#eeece1" d="m622.63257 312.54855l0 0c0 -12.037201 11.838013 -21.795258 26.440918 -21.795258l0 0c14.602905 0 26.440979 9.758057 26.440979 21.795258l0 0c0 12.037201 -11.838074 21.795288 -26.440979 21.795288l0 0c-14.602905 0 -26.440918 -9.758087 -26.440918 -21.795288z" fill-rule="evenodd"/><path stroke="#1f497d" stroke-width="1.0" stroke-linejoin="round" stroke-linecap="butt" d="m622.63257 312.54855l0 0c0 -12.037201 11.838013 -21.795258 26.440918 -21.795258l0 0c14.602905 0 26.440979 9.758057 26.440979 21.795258l0 0c0 12.037201 -11.838074 21.795288 -26.440979 21.795288l0 0c-14.602905 0 -26.440918 -9.758087 -26.440918 -21.795288z" fill-rule="evenodd"/><path fill="#000000" d="m643.5403 306.15106l0 -2.015625l11.125 0l0 1.640625q-1.640625 1.734375 -3.265625 4.640625q-1.609375 2.890625 -2.484375 5.953125q-0.625 2.15625 -0.8125 4.71875l-2.15625 0q0.03125 -2.03125 0.78125 -4.890625q0.765625 -2.875 2.1875 -5.546875q1.4375 -2.671875 3.03125 -4.5l-8.40625 0z" fill-rule="nonzero"/><path fill="#eeece1" d="m767.50397 310.98425l0 0c0 -12.037201 11.838013 -21.795288 26.440918 -21.795288l0 0c14.602905 0 26.440918 9.758087 26.440918 21.795288l0 0c0 12.037201 -11.838013 21.795288 -26.440918 21.795288l0 0c-14.602905 0 -26.440918 -9.758087 -26.440918 -21.795288z" fill-rule="evenodd"/><path stroke="#1f497d" stroke-width="1.0" stroke-linejoin="round" stroke-linecap="butt" d="m767.50397 310.98425l0 0c0 -12.037201 11.838013 -21.795288 26.440918 -21.795288l0 0c14.602905 0 26.440918 9.758087 26.440918 21.795288l0 0c0 12.037201 -11.838013 21.795288 -26.440918 21.795288l0 0c-14.602905 0 -26.440918 -9.758087 -26.440918 -21.795288z" fill-rule="evenodd"/><path fill="#000000" d="m799.20856 306.5555l-2.09375 0.15625q-0.28125 -1.234375 -0.796875 -1.796875q-0.859375 -0.90625 -2.109375 -0.90625q-1.0 0 -1.765625 0.5625q-1.0 0.71875 -1.578125 2.125q-0.5625 1.390625 -0.59375 3.96875q0.765625 -1.15625 1.859375 -1.71875q1.109375 -0.5625 2.3125 -0.5625q2.109375 0 3.59375 1.546875q1.484375 1.546875 1.484375 4.015625q0 1.609375 -0.703125 3.0q-0.6875 1.390625 -1.90625 2.140625q-1.21875 0.734375 -2.765625 0.734375q-2.640625 0 -4.3125 -1.9375q-1.65625 -1.953125 -1.65625 -6.40625q0 -4.96875 1.84375 -7.234375q1.59375 -1.96875 4.3125 -1.96875q2.03125 0 3.328125 1.140625q1.296875 1.125 1.546875 3.140625zm-8.609375 7.40625q0 1.078125 0.453125 2.078125q0.46875 1.0 1.296875 1.53125q0.84375 0.515625 1.75 0.515625q1.34375 0 2.296875 -1.078125q0.96875 -1.078125 0.96875 -2.9375q0 -1.78125 -0.953125 -2.796875q-0.953125 -1.03125 -2.390625 -1.03125q-1.421875 0 -2.421875 1.03125q-1.0 1.015625 -1.0 2.6875z" fill-rule="nonzero"/><path fill="#eeece1" d="m574.03674 384.95013l0 0c0 -12.037201 11.838013 -21.795288 26.440918 -21.795288l0 0c14.602966 0 26.440979 9.758087 26.440979 21.795288l0 0c0 12.037201 -11.838013 21.795258 -26.440979 21.795258l0 0c-14.602905 0 -26.440918 -9.758057 -26.440918 -21.795258z" fill-rule="evenodd"/><path stroke="#1f497d" stroke-width="1.0" stroke-linejoin="round" stroke-linecap="butt" d="m574.03674 384.95013l0 0c0 -12.037201 11.838013 -21.795288 26.440918 -21.795288l0 0c14.602966 0 26.440979 9.758087 26.440979 21.795288l0 0c0 12.037201 -11.838013 21.795258 -26.440979 21.795258l0 0c-14.602905 0 -26.440918 -9.758057 -26.440918 -21.795258z" fill-rule="evenodd"/><path fill="#000000" d="m594.80383 388.99014l2.21875 -0.1875q0.234375 1.609375 1.125 2.4375q0.90625 0.8125 2.171875 0.8125q1.53125 0 2.578125 -1.140625q1.0625 -1.15625 1.0625 -3.0625q0 -1.796875 -1.015625 -2.84375q-1.015625 -1.046875 -2.65625 -1.046875q-1.015625 0 -1.84375 0.46875q-0.8125 0.453125 -1.28125 1.203125l-1.984375 -0.265625l1.65625 -8.828125l8.546875 0l0 2.015625l-6.859375 0l-0.921875 4.625q1.546875 -1.078125 3.25 -1.078125q2.25 0 3.796875 1.5625q1.546875 1.546875 1.546875 4.0q0 2.328125 -1.359375 4.03125q-1.65625 2.09375 -4.515625 2.09375q-2.34375 0 -3.828125 -1.3125q-1.484375 -1.3125 -1.6875 -3.484375z" fill-rule="nonzero"/><path fill="#eeece1" d="m665.126 384.95013l0 0c0 -12.037201 11.838013 -21.795288 26.440979 -21.795288l0 0c14.602905 0 26.440918 9.758087 26.440918 21.795288l0 0c0 12.037201 -11.838013 21.795258 -26.440918 21.795258l0 0c-14.602966 0 -26.440979 -9.758057 -26.440979 -21.795258z" fill-rule="evenodd"/><path stroke="#1f497d" stroke-width="1.0" stroke-linejoin="round" stroke-linecap="butt" d="m665.126 384.95013l0 0c0 -12.037201 11.838013 -21.795288 26.440979 -21.795288l0 0c14.602905 0 26.440918 9.758087 26.440918 21.795288l0 0c0 12.037201 -11.838013 21.795258 -26.440918 21.795258l0 0c-14.602966 0 -26.440979 -9.758057 -26.440979 -21.795258z" fill-rule="evenodd"/><path fill="#000000" d="m692.65875 393.49014l0 -4.109375l-7.453125 0l0 -1.9375l7.828125 -11.140625l1.734375 0l0 11.140625l2.3125 0l0 1.9375l-2.3125 0l0 4.109375l-2.109375 0zm0 -6.046875l0 -7.75l-5.390625 7.75l5.390625 0z" fill-rule="nonzero"/><path fill="#eeece1" d="m736.6693 383.0l0 0c0 -12.037201 11.838013 -21.795288 26.440918 -21.795288l0 0c14.602966 0 26.440979 9.758087 26.440979 21.795288l0 0c0 12.037201 -11.838013 21.795288 -26.440979 21.795288l0 0c-14.602905 0 -26.440918 -9.758087 -26.440918 -21.795288z" fill-rule="evenodd"/><path stroke="#1f497d" stroke-width="1.0" stroke-linejoin="round" stroke-linecap="butt" d="m736.6693 383.0l0 0c0 -12.037201 11.838013 -21.795288 26.440918 -21.795288l0 0c14.602966 0 26.440979 9.758087 26.440979 21.795288l0 0c0 12.037201 -11.838013 21.795288 -26.440979 21.795288l0 0c-14.602905 0 -26.440918 -9.758087 -26.440918 -21.795288z" fill-rule="evenodd"/><path fill="#000000" d="m768.5145 389.50876l0 2.03125l-11.34375 0q-0.03125 -0.765625 0.234375 -1.46875q0.4375 -1.15625 1.390625 -2.28125q0.953125 -1.125 2.765625 -2.609375q2.796875 -2.296875 3.78125 -3.625q0.984375 -1.34375 0.984375 -2.546875q0 -1.25 -0.90625 -2.109375q-0.890625 -0.859375 -2.328125 -0.859375q-1.515625 0 -2.4375 0.921875q-0.90625 0.90625 -0.921875 2.515625l-2.171875 -0.21875q0.21875 -2.421875 1.671875 -3.6875q1.453125 -1.28125 3.90625 -1.28125q2.46875 0 3.90625 1.375q1.453125 1.359375 1.453125 3.390625q0 1.03125 -0.421875 2.03125q-0.421875 1.0 -1.40625 2.109375q-0.96875 1.09375 -3.25 3.015625q-1.890625 1.59375 -2.4375 2.15625q-0.53125 0.5625 -0.890625 1.140625l8.421875 0z" fill-rule="nonzero"/><path fill="#eeece1" d="m543.2756 462.2546l0 0c0 -12.037201 11.838013 -21.795288 26.440979 -21.795288l0 0c14.602905 0 26.440918 9.758087 26.440918 21.795288l0 0c0 12.03717 -11.838013 21.795258 -26.440918 21.795258l0 0c-14.602966 0 -26.440979 -9.758087 -26.440979 -21.795258z" fill-rule="evenodd"/><path stroke="#1f497d" stroke-width="1.0" stroke-linejoin="round" stroke-linecap="butt" d="m543.2756 462.2546l0 0c0 -12.037201 11.838013 -21.795288 26.440979 -21.795288l0 0c14.602905 0 26.440918 9.758087 26.440918 21.795288l0 0c0 12.03717 -11.838013 21.795258 -26.440918 21.795258l0 0c-14.602966 0 -26.440979 -9.758087 -26.440979 -21.795258z" fill-rule="evenodd"/><path fill="#000000" d="m571.9802 470.7946l-2.109375 0l0 -13.4375q-0.75 0.71875 -2.0 1.453125q-1.234375 0.71875 -2.21875 1.078125l0 -2.03125q1.78125 -0.828125 3.09375 -2.015625q1.328125 -1.1875 1.875 -2.296875l1.359375 0l0 17.25z" fill-rule="nonzero"/><path fill="#eeece1" d="m806.5302 382.46063l0 0c0 -12.037201 11.838013 -21.795288 26.440918 -21.795288l0 0c14.602905 0 26.440918 9.758087 26.440918 21.795288l0 0c0 12.037201 -11.838013 21.795288 -26.440918 21.795288l0 0c-14.602905 0 -26.440918 -9.758087 -26.440918 -21.795288z" fill-rule="evenodd"/><path stroke="#1f497d" stroke-width="1.0" stroke-linejoin="round" stroke-linecap="butt" d="m806.5302 382.46063l0 0c0 -12.037201 11.838013 -21.795288 26.440918 -21.795288l0 0c14.602905 0 26.440918 9.758087 26.440918 21.795288l0 0c0 12.037201 -11.838013 21.795288 -26.440918 21.795288l0 0c-14.602905 0 -26.440918 -9.758087 -26.440918 -21.795288z" fill-rule="evenodd"/><path fill="#000000" d="m827.3129 386.4694l2.109375 -0.28125q0.359375 1.78125 1.234375 2.578125q0.875 0.796875 2.125 0.796875q1.484375 0 2.5 -1.03125q1.03125 -1.03125 1.03125 -2.5625q0 -1.453125 -0.953125 -2.390625q-0.9375 -0.953125 -2.40625 -0.953125q-0.59375 0 -1.484375 0.234375l0.234375 -1.84375q0.203125 0.015625 0.34375 0.015625q1.34375 0 2.421875 -0.703125q1.078125 -0.703125 1.078125 -2.15625q0 -1.171875 -0.796875 -1.921875q-0.78125 -0.765625 -2.015625 -0.765625q-1.234375 0 -2.0625 0.78125q-0.8125 0.765625 -1.046875 2.3125l-2.109375 -0.375q0.390625 -2.125 1.75 -3.28125q1.375 -1.171875 3.421875 -1.171875q1.40625 0 2.578125 0.609375q1.1875 0.59375 1.8125 1.640625q0.640625 1.046875 0.640625 2.21875q0 1.109375 -0.609375 2.03125q-0.59375 0.90625 -1.765625 1.4375q1.53125 0.359375 2.375 1.46875q0.84375 1.109375 0.84375 2.765625q0 2.25 -1.640625 3.828125q-1.640625 1.5625 -4.15625 1.5625q-2.265625 0 -3.765625 -1.34375q-1.484375 -1.359375 -1.6875 -3.5z" fill-rule="nonzero"/><path fill="#000000" fill-opacity="0.0" d="m700.9386 263.1386l-33.165344 33.984253" fill-rule="evenodd"/><path stroke="#1f497d" stroke-width="1.0" stroke-linejoin="round" stroke-linecap="butt" d="m700.9386 263.1386l-33.165344 33.984253" fill-rule="evenodd"/><path fill="#000000" fill-opacity="0.0" d="m738.3317 263.1386l36.91339 32.44095" fill-rule="evenodd"/><path stroke="#1f497d" stroke-width="1.0" stroke-linejoin="round" stroke-linecap="butt" d="m738.3317 263.1386l36.91339 32.44095" fill-rule="evenodd"/><path fill="#000000" fill-opacity="0.0" d="m630.3769 327.96014l-29.88971 35.18109" fill-rule="evenodd"/><path stroke="#1f497d" stroke-width="1.0" stroke-linejoin="round" stroke-linecap="butt" d="m630.3769 327.96014l-29.88971 35.18109" fill-rule="evenodd"/><path fill="#000000" fill-opacity="0.0" d="m667.7701 327.96014l23.811035 35.18109" fill-rule="evenodd"/><path stroke="#1f497d" stroke-width="1.0" stroke-linejoin="round" stroke-linecap="butt" d="m667.7701 327.96014l23.811035 35.18109" fill-rule="evenodd"/><path fill="#000000" fill-opacity="0.0" d="m812.6415 326.39584l20.314941 34.2677" fill-rule="evenodd"/><path stroke="#1f497d" stroke-width="1.0" stroke-linejoin="round" stroke-linecap="butt" d="m812.6415 326.39584l20.314941 34.2677" fill-rule="evenodd"/><path fill="#000000" fill-opacity="0.0" d="m775.2483 326.39584l-12.125977 34.80313" fill-rule="evenodd"/><path stroke="#1f497d" stroke-width="1.0" stroke-linejoin="round" stroke-linecap="butt" d="m775.2483 326.39584l-12.125977 34.80313" fill-rule="evenodd"/><path fill="#000000" fill-opacity="0.0" d="m581.7811 400.36172l-12.062988 40.094482" fill-rule="evenodd"/><path stroke="#1f497d" stroke-width="1.0" stroke-linejoin="round" stroke-linecap="butt" d="m581.7811 400.36172l-12.062988 40.094482" fill-rule="evenodd"/><path fill="#000000" fill-opacity="0.0" d="m600.48816 279.35828l0 0c0 -43.03473 52.943237 -77.921265 118.252014 -77.921265l0 0c65.308716 0 118.25195 34.886536 118.25195 77.921265l0 0c0 43.03473 -52.943237 77.921265 -118.25195 77.921265l0 0c-65.30878 0 -118.252014 -34.886536 -118.252014 -77.921265z" fill-rule="evenodd"/><path stroke="#ff0000" stroke-width="3.0" stroke-linejoin="round" stroke-linecap="butt" d="m600.48816 279.35828l0 0c0 -43.03473 52.943237 -77.921265 118.252014 -77.921265l0 0c65.308716 0 118.25195 34.886536 118.25195 77.921265l0 0c0 43.03473 -52.943237 77.921265 -118.25195 77.921265l0 0c-65.30878 0 -118.252014 -34.886536 -118.252014 -77.921265z" fill-rule="evenodd"/><path fill="#000000" fill-opacity="0.0" d="m662.7454 281.93307l28.062988 -25.700806" fill-rule="evenodd"/><path stroke="#1f497d" stroke-width="1.0" stroke-linejoin="round" stroke-linecap="butt" stroke-dasharray="1.0,3.0" d="m665.27277 279.61847l23.0083 -21.071564" fill-rule="evenodd"/><path fill="#1f497d" stroke="#1f497d" stroke-width="1.0" stroke-linecap="butt" d="m665.27277 279.61847l0.06982422 -1.5888672l-1.519104 2.9161072l3.038147 -1.2574463z" fill-rule="evenodd"/><path fill="#1f497d" stroke="#1f497d" stroke-width="1.0" stroke-linecap="butt" d="m688.28107 258.5469l-0.06982422 1.5888672l1.519043 -2.9161377l-3.038086 1.2574463z" fill-rule="evenodd"/><path fill="#000000" fill-opacity="0.0" d="m593.1575 344.83597l28.062988 -25.700806" fill-rule="evenodd"/><path stroke="#1f497d" stroke-width="1.0" stroke-linejoin="round" stroke-linecap="butt" stroke-dasharray="1.0,3.0" d="m595.6848 342.52133l23.0083 -21.071564" fill-rule="evenodd"/><path fill="#1f497d" stroke="#1f497d" stroke-width="1.0" stroke-linecap="butt" d="m595.6848 342.52136l0.06982422 -1.5888977l-1.519043 2.9161377l3.038086 -1.2574463z" fill-rule="evenodd"/><path fill="#1f497d" stroke="#1f497d" stroke-width="1.0" stroke-linecap="butt" d="m618.6931 321.44977l-0.06982422 1.5888672l1.519104 -2.9161072l-3.038147 1.2574463z" fill-rule="evenodd"/><path fill="#000000" fill-opacity="0.0" d="m405.64566 37.979004l262.11026 0l0 148.66142l-262.11026 0z" fill-rule="evenodd"/><path fill="#000000" d="m428.06754 70.329l0 2.25l-12.609375 0q-0.03125 -0.84375 0.265625 -1.625q0.484375 -1.296875 1.546875 -2.546875q1.0625 -1.25 3.0625 -2.875q3.109375 -2.5625 4.203125 -4.046875q1.09375 -1.5 1.09375 -2.8125q0 -1.40625 -1.0 -2.359375q-0.984375 -0.953125 -2.59375 -0.953125q-1.6875 0 -2.703125 1.015625q-1.015625 1.015625 -1.03125 2.8125l-2.40625 -0.25q0.25 -2.6875 1.859375 -4.09375q1.609375 -1.421875 4.328125 -1.421875q2.75 0 4.34375 1.53125q1.609375 1.515625 1.609375 3.765625q0 1.140625 -0.46875 2.25q-0.46875 1.109375 -1.5625 2.328125q-1.078125 1.21875 -3.609375 3.359375q-2.09375 1.765625 -2.703125 2.40625q-0.59375 0.625 -0.984375 1.265625l9.359375 0z" fill-rule="nonzero"/><path fill="#000000" d="m436.0956 62.579002l-1.5625 0l0 -9.953125q-0.5625 0.546875 -1.484375 1.078125q-0.921875 0.53125 -1.640625 0.8125l0 -1.515625q1.3125 -0.609375 2.28125 -1.484375q0.984375 -0.875 1.390625 -1.703125l1.015625 0l0 12.765625zm3.989624 -6.265625q0 -2.265625 0.46875 -3.640625q0.46875 -1.375 1.375 -2.109375q0.921875 -0.75 2.3125 -0.75q1.015625 0 1.78125 0.421875q0.78125 0.40625 1.28125 1.1875q0.5 0.765625 0.78125 1.890625q0.296875 1.109375 0.296875 3.0q0 2.234375 -0.46875 3.609375q-0.453125 1.375 -1.375 2.125q-0.90625 0.75 -2.296875 0.75q-1.84375 0 -2.890625 -1.328125q-1.265625 -1.578125 -1.265625 -5.15625zm1.609375 0q0 3.125 0.734375 4.171875q0.734375 1.03125 1.8125 1.03125q1.0625 0 1.796875 -1.046875q0.734375 -1.046875 0.734375 -4.15625q0 -3.140625 -0.734375 -4.171875q-0.734375 -1.03125 -1.828125 -1.03125q-1.0625 0 -1.703125 0.90625q-0.8125 1.15625 -0.8125 4.296875z" fill-rule="nonzero"/><path fill="#000000" d="m470.71518 61.360252l-12.59375 0l0 -2.1875l12.59375 0l0 2.1875zm0 5.796875l-12.59375 0l0 -2.1875l12.59375 0l0 2.1875zm18.832184 5.421875l-2.34375 0l0 -14.921875q-0.859375 0.796875 -2.234375 1.609375q-1.359375 0.796875 -2.453125 1.203125l0 -2.265625q1.96875 -0.921875 3.4375 -2.234375q1.46875 -1.3125 2.078125 -2.546875l1.515625 0l0 19.15625zm5.9967957 -9.40625q0 -3.390625 0.6875 -5.453125q0.703125 -2.0625 2.078125 -3.171875q1.375 -1.125 3.453125 -1.125q1.53125 0 2.6875 0.625q1.171875 0.609375 1.921875 1.78125q0.75 1.15625 1.171875 2.828125q0.4375 1.671875 0.4375 4.515625q0 3.359375 -0.6875 5.421875q-0.6875 2.0625 -2.0625 3.1875q-1.375 1.125 -3.46875 1.125q-2.765625 0 -4.328125 -1.984375q-1.890625 -2.375 -1.890625 -7.75zm2.40625 0q0 4.6875 1.09375 6.25q1.109375 1.5625 2.71875 1.5625q1.609375 0 2.703125 -1.5625q1.109375 -1.5625 1.109375 -6.25q0 -4.71875 -1.109375 -6.265625q-1.09375 -1.546875 -2.734375 -1.546875q-1.609375 0 -2.578125 1.359375q-1.203125 1.75 -1.203125 6.453125zm24.73117 7.15625l0 2.25l-12.6093445 0q-0.03125 -0.84375 0.265625 -1.625q0.484375 -1.296875 1.546875 -2.546875q1.0624695 -1.25 3.0624695 -2.875q3.109375 -2.5625 4.203125 -4.046875q1.09375 -1.5 1.09375 -2.8125q0 -1.40625 -1.0 -2.359375q-0.984375 -0.953125 -2.59375 -0.953125q-1.6875 0 -2.703125 1.015625q-1.015625 1.015625 -1.03125 2.8125l-2.4062195 -0.25q0.25 -2.6875 1.8593445 -4.09375q1.609375 -1.421875 4.328125 -1.421875q2.75 0 4.34375 1.53125q1.609375 1.515625 1.609375 3.765625q0 1.140625 -0.46875 2.25q-0.46875 1.109375 -1.5625 2.328125q-1.078125 1.21875 -3.609375 3.359375q-2.09375 1.765625 -2.703125 2.40625q-0.59375 0.625 -0.984375 1.265625l9.359375 0zm10.012451 2.25l0 -4.5625l-8.265625 0l0 -2.15625l8.703125 -12.359375l1.90625 0l0 12.359375l2.578125 0l0 2.15625l-2.578125 0l0 4.5625l-2.34375 0zm0 -6.71875l0 -8.59375l-5.96875 8.59375l5.96875 0z" fill-rule="nonzero"/><path fill="#000000" d="m428.06754 102.329l0 2.25l-12.609375 0q-0.03125 -0.84375 0.265625 -1.625q0.484375 -1.296875 1.546875 -2.546875q1.0625 -1.25 3.0625 -2.875q3.109375 -2.5625 4.203125 -4.046875q1.09375 -1.5 1.09375 -2.8125q0 -1.40625 -1.0 -2.359375q-0.984375 -0.953125 -2.59375 -0.953125q-1.6875 0 -2.703125 1.015625q-1.015625 1.015625 -1.03125 2.8125l-2.40625 -0.25q0.25 -2.6875 1.859375 -4.09375q1.609375 -1.421875 4.328125 -1.421875q2.75 0 4.34375 1.53125q1.609375 1.515625 1.609375 3.765625q0 1.140625 -0.46875 2.25q-0.46875 1.109375 -1.5625 2.328125q-1.078125 1.21875 -3.609375 3.359375q-2.09375 1.765625 -2.703125 2.40625q-0.59375 0.625 -0.984375 1.265625l9.359375 0z" fill-rule="nonzero"/><path fill="#000000" d="m438.4081 93.079l0 1.5l-8.40625 0q-0.015625 -0.5625 0.1875 -1.078125q0.328125 -0.859375 1.03125 -1.6875q0.703125 -0.84375 2.046875 -1.9375q2.0625 -1.703125 2.796875 -2.6875q0.734375 -1.0 0.734375 -1.875q0 -0.9375 -0.671875 -1.5625q-0.65625 -0.640625 -1.734375 -0.640625q-1.125 0 -1.796875 0.671875q-0.671875 0.671875 -0.6875 1.875l-1.609375 -0.171875q0.171875 -1.796875 1.25 -2.734375q1.078125 -0.9375 2.890625 -0.9375q1.828125 0 2.890625 1.015625q1.0625 1.015625 1.0625 2.515625q0 0.765625 -0.3125 1.5q-0.3125 0.734375 -1.03125 1.546875q-0.71875 0.8125 -2.40625 2.234375q-1.40625 1.1875 -1.8125 1.609375q-0.390625 0.421875 -0.65625 0.84375l6.234375 0zm1.677124 -4.765625q0 -2.265625 0.46875 -3.640625q0.46875 -1.375 1.375 -2.109375q0.921875 -0.75 2.3125 -0.75q1.015625 0 1.78125 0.421875q0.78125 0.40625 1.28125 1.1875q0.5 0.765625 0.78125 1.890625q0.296875 1.109375 0.296875 3.0q0 2.234375 -0.46875 3.609375q-0.453125 1.375 -1.375 2.125q-0.90625 0.75 -2.296875 0.75q-1.84375 0 -2.890625 -1.328125q-1.265625 -1.578125 -1.265625 -5.15625zm1.609375 0q0 3.125 0.734375 4.171875q0.734375 1.03125 1.8125 1.03125q1.0625 0 1.796875 -1.046875q0.734375 -1.046875 0.734375 -4.15625q0 -3.140625 -0.734375 -4.171875q-0.734375 -1.03125 -1.828125 -1.03125q-1.0625 0 -1.703125 0.90625q-0.8125 1.15625 -0.8125 4.296875z" fill-rule="nonzero"/><path fill="#000000" d="m470.71518 93.36025l-12.59375 0l0 -2.1875l12.59375 0l0 2.1875zm0 5.796875l-12.59375 0l0 -2.1875l12.59375 0l0 2.1875z" fill-rule="nonzero"/><path fill="#000000" d="m424.58316 136.579l-2.34375 0l0 -14.921867q-0.859375 0.796875 -2.234375 1.609375q-1.359375 0.796875 -2.453125 1.203125l0 -2.265625q1.96875 -0.921875 3.4375 -2.234375q1.46875 -1.3125 2.078125 -2.546875l1.515625 0l0 19.156242zm5.996826 -9.406242q0 -3.390625 0.6875 -5.453125q0.703125 -2.0625 2.078125 -3.171875q1.375 -1.125 3.453125 -1.125q1.53125 0 2.6875 0.625q1.171875 0.609375 1.921875 1.78125q0.75 1.15625 1.171875 2.828125q0.4375 1.671875 0.4375 4.515625q0 3.3593674 -0.6875 5.4218674q-0.6875 2.0625 -2.0625 3.1875q-1.375 1.125 -3.46875 1.125q-2.765625 0 -4.328125 -1.984375q-1.890625 -2.375 -1.890625 -7.7499924zm2.40625 0q0 4.6874924 1.09375 6.2499924q1.109375 1.5625 2.71875 1.5625q1.609375 0 2.703125 -1.5625q1.109375 -1.5625 1.109375 -6.2499924q0 -4.71875 -1.109375 -6.265625q-1.09375 -1.546875 -2.734375 -1.546875q-1.609375 0 -2.578125 1.359375q-1.203125 1.75 -1.203125 6.453125zm24.73117 7.1562424l0 2.25l-12.609375 0q-0.03125 -0.84375 0.265625 -1.625q0.484375 -1.296875 1.546875 -2.546875q1.0625 -1.25 3.0625 -2.875q3.109375 -2.5624924 4.203125 -4.0468674q1.09375 -1.5 1.09375 -2.8125q0 -1.40625 -1.0 -2.359375q-0.984375 -0.953125 -2.59375 -0.953125q-1.6875 0 -2.703125 1.015625q-1.015625 1.015625 -1.03125 2.8125l-2.40625 -0.25q0.25 -2.6875 1.859375 -4.09375q1.609375 -1.421875 4.328125 -1.421875q2.75 0 4.34375 1.53125q1.609375 1.515625 1.609375 3.765625q0 1.140625 -0.46875 2.25q-0.46875 1.109375 -1.5625 2.328125q-1.078125 1.2187424 -3.609375 3.3593674q-2.09375 1.765625 -2.703125 2.40625q-0.59375 0.625 -0.984375 1.265625l9.359375 0zm10.012451 2.25l0 -4.5625l-8.265625 0l0 -2.15625l8.703125 -12.359367l1.90625 0l0 12.359367l2.578125 0l0 2.15625l-2.578125 0l0 4.5625l-2.34375 0zm0 -6.71875l0 -8.593742l-5.96875 8.593742l5.96875 0zm7.0436707 -8.859367l0.609375 -1.84375q2.0625 0.71875 3.0 1.25q-0.25 -2.34375 -0.265625 -3.234375l1.890625 0q-0.03125 1.28125 -0.296875 3.234375q1.34375 -0.6875 3.078125 -1.25l0.59375 1.84375q-1.65625 0.546875 -3.234375 0.734375q0.78125 0.6875 2.234375 2.453125l-1.5625 1.109375q-0.75 -1.03125 -1.78125 -2.796875q-0.96875 1.828125 -1.703125 2.796875l-1.53125 -1.109375q1.515625 -1.859375 2.15625 -2.453125q-1.671875 -0.328125 -3.1875 -0.734375zm19.48294 15.578117l-2.34375 0l0 -14.921867q-0.859375 0.796875 -2.234375 1.609375q-1.359375 0.796875 -2.453125 1.203125l0 -2.265625q1.96875 -0.921875 3.4375 -2.234375q1.46875 -1.3125 2.078125 -2.546875l1.515625 0l0 19.156242zm5.9967957 -9.406242q0 -3.390625 0.6875 -5.453125q0.703125 -2.0625 2.078125 -3.171875q1.375 -1.125 3.453125 -1.125q1.53125 0 2.6875 0.625q1.171875 0.609375 1.921875 1.78125q0.75 1.15625 1.1719055 2.828125q0.4375 1.671875 0.4375 4.515625q0 3.3593674 -0.6875 5.4218674q-0.6875305 2.0625 -2.0625305 3.1875q-1.375 1.125 -3.46875 1.125q-2.765625 0 -4.328125 -1.984375q-1.890625 -2.375 -1.890625 -7.7499924zm2.40625 0q0 4.6874924 1.09375 6.2499924q1.109375 1.5625 2.71875 1.5625q1.609375 0 2.703125 -1.5625q1.109375 -1.5625 1.109375 -6.2499924q0 -4.71875 -1.109375 -6.265625q-1.09375 -1.546875 -2.734375 -1.546875q-1.609375 0 -2.578125 1.359375q-1.203125 1.75 -1.203125 6.453125zm24.73117 7.1562424l0 2.25l-12.609375 0q-0.03125 -0.84375 0.265625 -1.625q0.484375 -1.296875 1.546875 -2.546875q1.0625 -1.25 3.0625 -2.875q3.109375 -2.5624924 4.203125 -4.0468674q1.09375 -1.5 1.09375 -2.8125q0 -1.40625 -1.0 -2.359375q-0.984375 -0.953125 -2.59375 -0.953125q-1.6875 0 -2.703125 1.015625q-1.015625 1.015625 -1.03125 2.8125l-2.40625 -0.25q0.25 -2.6875 1.859375 -4.09375q1.609375 -1.421875 4.328125 -1.421875q2.75 0 4.34375 1.53125q1.609375 1.515625 1.609375 3.765625q0 1.140625 -0.46875 2.25q-0.46875 1.109375 -1.5625 2.328125q-1.078125 1.2187424 -3.609375 3.3593674q-2.09375 1.765625 -2.703125 2.40625q-0.59375 0.625 -0.984375 1.265625l9.359375 0zm10.012451 2.25l0 -4.5625l-8.265625 0l0 -2.15625l8.703125 -12.359367l1.90625 0l0 12.359367l2.578125 0l0 2.15625l-2.578125 0l0 4.5625l-2.34375 0zm0 -6.71875l0 -8.593742l-5.96875 8.593742l5.96875 0zm20.293701 -4.4999924l-12.59375 0l0 -2.1875l12.59375 0l0 2.1875zm0 5.7968674l-12.59375 0l0 -2.1875l12.59375 0l0 2.1875zm11.4262085 5.421875l-2.34375 0l0 -14.921867q-0.859375 0.796875 -2.234375 1.609375q-1.359375 0.796875 -2.453125 1.203125l0 -2.265625q1.96875 -0.921875 3.4375 -2.234375q1.46875 -1.3125 2.078125 -2.546875l1.515625 0l0 19.156242zm6.871826 0l0 -19.078117l3.796875 0l4.515625 13.499992q0.625 1.890625 0.90625 2.828125q0.328125 -1.03125 1.015625 -3.0625l4.578125 -13.265617l3.390625 0l0 19.078117l-2.4375 0l0 -15.968742l-5.546875 15.968742l-2.265625 0l-5.53125 -16.249992l0 16.249992l-2.421875 0z" fill-rule="nonzero"/><path fill="#000000" d="m428.06754 166.32901l0 2.25l-12.609375 0q-0.03125 -0.84375 0.265625 -1.625q0.484375 -1.296875 1.546875 -2.546875q1.0625 -1.25 3.0625 -2.875q3.109375 -2.5625 4.203125 -4.046875q1.09375 -1.5 1.09375 -2.8125q0 -1.40625 -1.0 -2.359375q-0.984375 -0.953125 -2.59375 -0.953125q-1.6875 0 -2.703125 1.015625q-1.015625 1.015625 -1.03125 2.8125l-2.40625 -0.25q0.25 -2.6875 1.859375 -4.09375q1.609375 -1.421875 4.328125 -1.421875q2.75 0 4.34375 1.53125q1.609375 1.515625 1.609375 3.765625q0 1.140625 -0.46875 2.25q-0.46875 1.109375 -1.5625 2.328125q-1.078125 1.21875 -3.609375 3.359375q-2.09375 1.765625 -2.703125 2.40625q-0.59375 0.625 -0.984375 1.265625l9.359375 0z" fill-rule="nonzero"/><path fill="#000000" d="m430.2206 155.21964l1.5625 -0.203125q0.265625 1.328125 0.90625 1.921875q0.65625 0.578125 1.578125 0.578125q1.109375 0 1.859375 -0.765625q0.765625 -0.765625 0.765625 -1.890625q0 -1.078125 -0.703125 -1.765625q-0.703125 -0.703125 -1.796875 -0.703125q-0.4375 0 -1.09375 0.171875l0.171875 -1.375q0.15625 0.015625 0.25 0.015625q1.0 0 1.796875 -0.515625q0.796875 -0.53125 0.796875 -1.609375q0 -0.859375 -0.578125 -1.421875q-0.578125 -0.5625 -1.5 -0.5625q-0.921875 0 -1.53125 0.578125q-0.59375 0.5625 -0.765625 1.71875l-1.5625 -0.28125q0.28125 -1.578125 1.296875 -2.4375q1.015625 -0.859375 2.53125 -0.859375q1.03125 0 1.90625 0.453125q0.875 0.4375 1.34375 1.21875q0.46875 0.765625 0.46875 1.625q0 0.828125 -0.453125 1.515625q-0.4375 0.671875 -1.296875 1.0625q1.125 0.265625 1.75 1.09375q0.625 0.8125 0.625 2.046875q0 1.65625 -1.21875 2.8125q-1.21875 1.15625 -3.078125 1.15625q-1.671875 0 -2.78125 -0.984375q-1.09375 -1.0 -1.25 -2.59375zm9.864624 -2.90625q0 -2.265625 0.46875 -3.640625q0.46875 -1.375 1.375 -2.109375q0.921875 -0.75 2.3125 -0.75q1.015625 0 1.78125 0.421875q0.78125 0.40625 1.28125 1.1875q0.5 0.765625 0.78125 1.890625q0.296875 1.109375 0.296875 3.0q0 2.234375 -0.46875 3.609375q-0.453125 1.375 -1.375 2.125q-0.90625 0.75 -2.296875 0.75q-1.84375 0 -2.890625 -1.328125q-1.265625 -1.578125 -1.265625 -5.15625zm1.609375 0q0 3.125 0.734375 4.171875q0.734375 1.03125 1.8125 1.03125q1.0625 0 1.796875 -1.046875q0.734375 -1.046875 0.734375 -4.15625q0 -3.140625 -0.734375 -4.171875q-0.734375 -1.03125 -1.828125 -1.03125q-1.0625 0 -1.703125 0.90625q-0.8125 1.15625 -0.8125 4.296875z" fill-rule="nonzero"/><path fill="#000000" d="m470.71518 157.36026l-12.59375 0l0 -2.1875l12.59375 0l0 2.1875zm0 5.796875l-12.59375 0l0 -2.1875l12.59375 0l0 2.1875zm18.832184 5.421875l-2.34375 0l0 -14.921875q-0.859375 0.796875 -2.234375 1.609375q-1.359375 0.796875 -2.453125 1.203125l0 -2.265625q1.96875 -0.921875 3.4375 -2.234375q1.46875 -1.3125 2.078125 -2.546875l1.515625 0l0 19.15625zm15.871796 -7.484375l0 -2.234375l8.0781555 -0.015625l0 7.078125q-1.8594055 1.484375 -3.8437805 2.234375q-1.96875 0.75 -4.046875 0.75q-2.8125 0 -5.109375 -1.203125q-2.296875 -1.203125 -3.46875 -3.484375q-1.171875 -2.28125 -1.171875 -5.09375q0 -2.78125 1.15625 -5.1875q1.171875 -2.421875 3.359375 -3.59375q2.1875 -1.171875 5.03125 -1.171875q2.078125 0 3.75 0.671875q1.671875 0.671875 2.609375 1.875q0.9531555 1.1875 1.4531555 3.109375l-2.2812805 0.625q-0.421875 -1.453125 -1.0625 -2.28125q-0.640625 -0.84375 -1.828125 -1.34375q-1.171875 -0.5 -2.625 -0.5q-1.734375 0 -3.0 0.53125q-1.25 0.53125 -2.03125 1.390625q-0.765625 0.859375 -1.203125 1.890625q-0.734375 1.765625 -0.734375 3.828125q0 2.5625 0.875 4.28125q0.890625 1.703125 2.5625 2.546875q1.6875 0.828125 3.578125 0.828125q1.640625 0 3.1875 -0.625q1.5625 -0.640625 2.375 -1.359375l0 -3.546875l-5.609375 0z" fill-rule="nonzero"/><path fill="#000000" fill-opacity="0.0" d="m539.51184 347.73358l0 0c0 -43.0347 33.99109 -77.921234 75.9212 -77.921234l0 0c20.13562 0 39.446472 8.209534 53.68445 22.822601c14.238037 14.613068 22.236816 34.432648 22.236816 55.098633l0 0c0 43.03473 -33.99109 77.921265 -75.921265 77.921265l0 0c-41.930115 0 -75.9212 -34.886536 -75.9212 -77.921265z" fill-rule="evenodd"/><path stroke="#ff0000" stroke-width="3.0" stroke-linejoin="round" stroke-linecap="butt" d="m539.51184 347.73358l0 0c0 -43.0347 33.99109 -77.921234 75.9212 -77.921234l0 0c20.13562 0 39.446472 8.209534 53.68445 22.822601c14.238037 14.613068 22.236816 34.432648 22.236816 55.098633l0 0c0 43.03473 -33.99109 77.921265 -75.921265 77.921265l0 0c-41.930115 0 -75.9212 -34.886536 -75.9212 -77.921265z" fill-rule="evenodd"/></g></svg>