<svg version="1.1" viewBox="0.0 0.0 406.7165354330709 347.16272965879267" fill="none" stroke="none" stroke-linecap="square" stroke-miterlimit="10" xmlns:xlink="http://www.w3.org/1999/xlink" xmlns="http://www.w3.org/2000/svg"><clipPath id="p.0"><path d="m0 0l406.71652 0l0 347.16272l-406.71652 0l0 -347.16272z" clip-rule="nonzero"/></clipPath><g clip-path="url(#p.0)"><path fill="#000000" fill-opacity="0.0" d="m0 0l406.71652 0l0 347.16272l-406.71652 0z" fill-rule="evenodd"/><path fill="#000000" fill-opacity="0.0" d="m214.20894 69.72786l-33.16536 33.984253" fill-rule="evenodd"/><path stroke="#1f497d" stroke-width="1.0" stroke-linejoin="round" stroke-linecap="butt" d="m214.20894 69.72786l-33.16536 33.984253" fill-rule="evenodd"/><path fill="#000000" fill-opacity="0.0" d="m251.60208 69.72786l36.91339 32.44095" fill-rule="evenodd"/><path stroke="#1f497d" stroke-width="1.0" stroke-linejoin="round" stroke-linecap="butt" d="m251.60208 69.72786l36.91339 32.44095" fill-rule="evenodd"/><path fill="#000000" fill-opacity="0.0" d="m143.64726 134.54938l-29.889763 35.181107" fill-rule="evenodd"/><path stroke="#1f497d" stroke-width="1.0" stroke-linejoin="round" stroke-linecap="butt" d="m143.64726 134.54938l-29.889763 35.181107" fill-rule="evenodd"/><path fill="#000000" fill-opacity="0.0" d="m95.05146 206.95096l-12.062996 40.094482" fill-rule="evenodd"/><path stroke="#1f497d" stroke-width="1.0" stroke-linejoin="round" stroke-linecap="butt" d="m95.05146 206.95096l-12.062996 40.094482" fill-rule="evenodd"/><path fill="#000000" fill-opacity="0.0" d="m181.0404 134.54938l23.81102 35.181107" fill-rule="evenodd"/><path stroke="#1f497d" stroke-width="1.0" stroke-linejoin="round" stroke-linecap="butt" d="m181.0404 134.54938l23.81102 35.181107" fill-rule="evenodd"/><path fill="#000000" fill-opacity="0.0" d="m288.51865 132.98508l-12.125977 34.803146" fill-rule="evenodd"/><path stroke="#1f497d" stroke-width="1.0" stroke-linejoin="round" stroke-linecap="butt" d="m288.51865 132.98508l-12.125977 34.803146" fill-rule="evenodd"/><path fill="#eeece1" d="m206.46457 54.316273l0 0c0 -12.037197 11.838013 -21.795277 26.440948 -21.795277l0 0c14.602921 0 26.440948 9.75808 26.440948 21.795277l0 0c0 12.037197 -11.838028 21.795277 -26.440948 21.795277l0 0c-14.602936 0 -26.440948 -9.75808 -26.440948 -21.795277z" fill-rule="evenodd"/><path stroke="#1f497d" stroke-width="1.0" stroke-linejoin="round" stroke-linecap="butt" d="m206.46457 54.316273l0 0c0 -12.037197 11.838013 -21.795277 26.440948 -21.795277l0 0c14.602921 0 26.440948 9.75808 26.440948 21.795277l0 0c0 12.037197 -11.838028 21.795277 -26.440948 21.795277l0 0c-14.602936 0 -26.440948 -9.75808 -26.440948 -21.795277z" fill-rule="evenodd"/><path fill="#000000" d="m227.37231 47.91877l0 -2.015625l11.125 0l0 1.640625q-1.640625 1.734375 -3.265625 4.640625q-1.609375 2.890625 -2.484375 5.953125q-0.625 2.15625 -0.8125 4.71875l-2.15625 0q0.03125 -2.03125 0.78125 -4.890625q0.765625 -2.875 2.1875 -5.546875q1.4375 -2.671875 3.03125 -4.5l-8.40625 0z" fill-rule="nonzero"/><path fill="#eeece1" d="m135.9029 119.137794l0 0c0 -12.037201 11.838013 -21.795273 26.440933 -21.795273l0 0c14.602936 0 26.440948 9.758072 26.440948 21.795273l0 0c0 12.037193 -11.838013 21.79528 -26.440948 21.79528l0 0c-14.602921 0 -26.440933 -9.758087 -26.440933 -21.79528z" fill-rule="evenodd"/><path stroke="#1f497d" stroke-width="1.0" stroke-linejoin="round" stroke-linecap="butt" d="m135.9029 119.137794l0 0c0 -12.037201 11.838013 -21.795273 26.440933 -21.795273l0 0c14.602936 0 26.440948 9.758072 26.440948 21.795273l0 0c0 12.037193 -11.838013 21.79528 -26.440948 21.79528l0 0c-14.602921 0 -26.440933 -9.758087 -26.440933 -21.79528z" fill-rule="evenodd"/><path fill="#000000" d="m159.92 118.365295q-1.3125 -0.484375 -1.953125 -1.375q-0.625 -0.890625 -0.625 -2.140625q0 -1.875 1.34375 -3.140625q1.34375 -1.28125 3.578125 -1.28125q2.25 0 3.625 1.3125q1.375 1.296875 1.375 3.171875q0 1.203125 -0.625 2.09375q-0.625 0.875 -1.90625 1.359375q1.578125 0.515625 2.40625 1.671875q0.828125 1.140625 0.828125 2.734375q0 2.203125 -1.5625 3.703125q-1.5625 1.5 -4.09375 1.5q-2.546875 0 -4.109375 -1.5q-1.5625 -1.515625 -1.5625 -3.765625q0 -1.671875 0.84375 -2.796875q0.859375 -1.140625 2.4375 -1.546875zm-0.421875 -3.578125q0 1.21875 0.78125 2.0q0.78125 0.765625 2.03125 0.765625q1.21875 0 2.0 -0.765625q0.78125 -0.765625 0.78125 -1.890625q0 -1.15625 -0.8125 -1.9375q-0.796875 -0.796875 -1.984375 -0.796875q-1.203125 0 -2.0 0.78125q-0.796875 0.765625 -0.796875 1.84375zm-0.6875 7.9375q0 0.890625 0.421875 1.734375q0.4375 0.84375 1.28125 1.3125q0.84375 0.46875 1.8125 0.46875q1.515625 0 2.5 -0.96875q0.984375 -0.984375 0.984375 -2.484375q0 -1.515625 -1.015625 -2.515625q-1.015625 -1.0 -2.53125 -1.0q-1.5 0 -2.484375 0.984375q-0.96875 0.984375 -0.96875 2.46875z" fill-rule="nonzero"/><path fill="#eeece1" d="m280.7743 117.573494l0 0c0 -12.037201 11.838013 -21.79528 26.440918 -21.79528l0 0c14.602936 0 26.440948 9.75808 26.440948 21.79528l0 0c0 12.037193 -11.838013 21.795265 -26.440948 21.795265l0 0c-14.602905 0 -26.440918 -9.758072 -26.440918 -21.795265z" fill-rule="evenodd"/><path stroke="#1f497d" stroke-width="1.0" stroke-linejoin="round" stroke-linecap="butt" d="m280.7743 117.573494l0 0c0 -12.037201 11.838013 -21.79528 26.440918 -21.79528l0 0c14.602936 0 26.440948 9.75808 26.440948 21.79528l0 0c0 12.037193 -11.838013 21.795265 -26.440948 21.795265l0 0c-14.602905 0 -26.440918 -9.758072 -26.440918 -21.795265z" fill-rule="evenodd"/><path fill="#000000" d="m312.47888 113.14474l-2.09375 0.15625q-0.28125 -1.234375 -0.796875 -1.796875q-0.859375 -0.90625 -2.109375 -0.90625q-1.0 0 -1.765625 0.5625q-1.0 0.71875 -1.578125 2.125q-0.5625 1.390625 -0.59375 3.96875q0.765625 -1.15625 1.859375 -1.71875q1.109375 -0.5625 2.3125 -0.5625q2.109375 0 3.59375 1.546875q1.484375 1.546875 1.484375 4.015625q0 1.609375 -0.703125 3.0q-0.6875 1.390625 -1.90625 2.140625q-1.21875 0.734375 -2.765625 0.734375q-2.640625 0 -4.3125 -1.9375q-1.65625 -1.953125 -1.65625 -6.40625q0 -4.96875 1.84375 -7.234375q1.59375 -1.96875 4.3125 -1.96875q2.03125 0 3.328125 1.140625q1.296875 1.125 1.546875 3.140625zm-8.609375 7.40625q0 1.078125 0.453125 2.078125q0.46875 1.0 1.296875 1.53125q0.84375 0.515625 1.75 0.515625q1.34375 0 2.296875 -1.078125q0.96875 -1.078125 0.96875 -2.9375q0 -1.78125 -0.953125 -2.796875q-0.953125 -1.03125 -2.390625 -1.03125q-1.421875 0 -2.421875 1.03125q-1.0 1.015625 -1.0 2.6875z" fill-rule="nonzero"/><path fill="#eeece1" d="m87.30708 191.53937l0 0c0 -12.037201 11.83802 -21.795273 26.440948 -21.795273l0 0c14.602936 0 26.440948 9.758072 26.440948 21.795273l0 0c0 12.037201 -11.838013 21.795273 -26.440948 21.795273l0 0c-14.602928 0 -26.440948 -9.758072 -26.440948 -21.795273z" fill-rule="evenodd"/><path stroke="#1f497d" stroke-width="1.0" stroke-linejoin="round" stroke-linecap="butt" d="m87.30708 191.53937l0 0c0 -12.037201 11.83802 -21.795273 26.440948 -21.795273l0 0c14.602936 0 26.440948 9.758072 26.440948 21.795273l0 0c0 12.037201 -11.838013 21.795273 -26.440948 21.795273l0 0c-14.602928 0 -26.440948 -9.758072 -26.440948 -21.795273z" fill-rule="evenodd"/><path fill="#000000" d="m108.0742 195.57938l2.21875 -0.1875q0.234375 1.609375 1.125 2.4375q0.90625 0.8125 2.171875 0.8125q1.53125 0 2.578125 -1.140625q1.0625 -1.15625 1.0625 -3.0625q0 -1.796875 -1.015625 -2.84375q-1.015625 -1.046875 -2.65625 -1.046875q-1.015625 0 -1.84375 0.46875q-0.8125 0.453125 -1.28125 1.203125l-1.984375 -0.265625l1.65625 -8.828125l8.546875 0l0 2.015625l-6.859375 0l-0.921875 4.625q1.546875 -1.078125 3.25 -1.078125q2.25 0 3.796875 1.5625q1.546875 1.546875 1.546875 4.0q0 2.328125 -1.359375 4.03125q-1.65625 2.09375 -4.515625 2.09375q-2.34375 0 -3.828125 -1.3125q-1.484375 -1.3125 -1.6875 -3.484375z" fill-rule="nonzero"/><path fill="#eeece1" d="m178.39633 191.53937l0 0c0 -12.037201 11.838013 -21.795273 26.440933 -21.795273l0 0c14.602936 0 26.440948 9.758072 26.440948 21.795273l0 0c0 12.037201 -11.838013 21.795273 -26.440948 21.795273l0 0c-14.602921 0 -26.440933 -9.758072 -26.440933 -21.795273z" fill-rule="evenodd"/><path stroke="#1f497d" stroke-width="1.0" stroke-linejoin="round" stroke-linecap="butt" d="m178.39633 191.53937l0 0c0 -12.037201 11.838013 -21.795273 26.440933 -21.795273l0 0c14.602936 0 26.440948 9.758072 26.440948 21.795273l0 0c0 12.037201 -11.838013 21.795273 -26.440948 21.795273l0 0c-14.602921 0 -26.440933 -9.758072 -26.440933 -21.795273z" fill-rule="evenodd"/><path fill="#000000" d="m205.92906 200.07938l0 -4.109375l-7.453125 0l0 -1.9375l7.828125 -11.140625l1.734375 0l0 11.140625l2.3125 0l0 1.9375l-2.3125 0l0 4.109375l-2.109375 0zm0 -6.046875l0 -7.75l-5.390625 7.75l5.390625 0z" fill-rule="nonzero"/><path fill="#eeece1" d="m249.93964 189.58923l0 0c0 -12.037186 11.838013 -21.795273 26.440948 -21.795273l0 0c14.602936 0 26.440948 9.758087 26.440948 21.795273l0 0c0 12.037201 -11.838013 21.795288 -26.440948 21.795288l0 0c-14.602936 0 -26.440948 -9.758087 -26.440948 -21.795288z" fill-rule="evenodd"/><path stroke="#1f497d" stroke-width="1.0" stroke-linejoin="round" stroke-linecap="butt" d="m249.93964 189.58923l0 0c0 -12.037186 11.838013 -21.795273 26.440948 -21.795273l0 0c14.602936 0 26.440948 9.758087 26.440948 21.795273l0 0c0 12.037201 -11.838013 21.795288 -26.440948 21.795288l0 0c-14.602936 0 -26.440948 -9.758087 -26.440948 -21.795288z" fill-rule="evenodd"/><path fill="#000000" d="m281.78488 196.09799l0 2.03125l-11.34375 0q-0.03125 -0.765625 0.234375 -1.46875q0.4375 -1.15625 1.390625 -2.28125q0.953125 -1.125 2.765625 -2.609375q2.796875 -2.296875 3.78125 -3.625q0.984375 -1.34375 0.984375 -2.546875q0 -1.25 -0.90625 -2.109375q-0.890625 -0.859375 -2.328125 -0.859375q-1.515625 0 -2.4375 0.921875q-0.90625 0.90625 -0.921875 2.515625l-2.171875 -0.21875q0.21875 -2.421875 1.671875 -3.6875q1.453125 -1.28125 3.90625 -1.28125q2.46875 0 3.90625 1.375q1.453125 1.359375 1.453125 3.390625q0 1.03125 -0.421875 2.03125q-0.421875 1.0 -1.40625 2.109375q-0.96875 1.09375 -3.25 3.015625q-1.890625 1.59375 -2.4375 2.15625q-0.53125 0.5625 -0.890625 1.140625l8.421875 0z" fill-rule="nonzero"/><path fill="#eeece1" d="m56.545933 268.84384l0 0c0 -12.037201 11.8380165 -21.795288 26.440945 -21.795288l0 0c14.602928 0 26.44094 9.758087 26.44094 21.795288l0 0c0 12.037201 -11.838013 21.795258 -26.44094 21.795258l0 0c-14.602928 0 -26.440945 -9.758057 -26.440945 -21.795258z" fill-rule="evenodd"/><path stroke="#1f497d" stroke-width="1.0" stroke-linejoin="round" stroke-linecap="butt" d="m56.545933 268.84384l0 0c0 -12.037201 11.8380165 -21.795288 26.440945 -21.795288l0 0c14.602928 0 26.44094 9.758087 26.44094 21.795288l0 0c0 12.037201 -11.838013 21.795258 -26.44094 21.795258l0 0c-14.602928 0 -26.440945 -9.758057 -26.440945 -21.795258z" fill-rule="evenodd"/><path fill="#000000" d="m85.25055 277.38382l-2.109375 0l0 -13.4375q-0.75 0.71875 -2.0 1.453125q-1.234375 0.71875 -2.21875 1.078125l0 -2.03125q1.78125 -0.828125 3.09375 -2.015625q1.328125 -1.1875 1.875 -2.296875l1.359375 0l0 17.25z" fill-rule="nonzero"/><path fill="#eeece1" d="m319.80054 189.04987l0 0c0 -12.037201 11.838013 -21.795273 26.440918 -21.795273l0 0c14.602936 0 26.440948 9.758072 26.440948 21.795273l0 0c0 12.037201 -11.838013 21.795273 -26.440948 21.795273l0 0c-14.602905 0 -26.440918 -9.758072 -26.440918 -21.795273z" fill-rule="evenodd"/><path stroke="#1f497d" stroke-width="1.0" stroke-linejoin="round" stroke-linecap="butt" d="m319.80054 189.04987l0 0c0 -12.037201 11.838013 -21.795273 26.440918 -21.795273l0 0c14.602936 0 26.440948 9.758072 26.440948 21.795273l0 0c0 12.037201 -11.838013 21.795273 -26.440948 21.795273l0 0c-14.602905 0 -26.440918 -9.758072 -26.440918 -21.795273z" fill-rule="evenodd"/><path fill="#000000" d="m340.58325 193.05862l2.109375 -0.28125q0.359375 1.78125 1.234375 2.578125q0.875 0.796875 2.125 0.796875q1.484375 0 2.5 -1.03125q1.03125 -1.03125 1.03125 -2.5625q0 -1.453125 -0.953125 -2.390625q-0.9375 -0.953125 -2.40625 -0.953125q-0.59375 0 -1.484375 0.234375l0.234375 -1.84375q0.203125 0.015625 0.34375 0.015625q1.34375 0 2.421875 -0.703125q1.078125 -0.703125 1.078125 -2.15625q0 -1.171875 -0.796875 -1.921875q-0.78125 -0.765625 -2.015625 -0.765625q-1.234375 0 -2.0625 0.78125q-0.8125 0.765625 -1.046875 2.3125l-2.109375 -0.375q0.390625 -2.125 1.75 -3.28125q1.375 -1.171875 3.421875 -1.171875q1.40625 0 2.578125 0.609375q1.1875 0.59375 1.8125 1.640625q0.640625 1.046875 0.640625 2.21875q0 1.109375 -0.609375 2.03125q-0.59375 0.90625 -1.765625 1.4375q1.53125 0.359375 2.375 1.46875q0.84375 1.109375 0.84375 2.765625q0 2.25 -1.640625 3.828125q-1.640625 1.5625 -4.15625 1.5625q-2.265625 0 -3.765625 -1.34375q-1.484375 -1.359375 -1.6875 -3.5z" fill-rule="nonzero"/><path fill="#000000" fill-opacity="0.0" d="m325.9118 132.98508l20.314941 34.267715" fill-rule="evenodd"/><path stroke="#1f497d" stroke-width="1.0" stroke-linejoin="round" stroke-linecap="butt" d="m325.9118 132.98508l20.314941 34.267715" fill-rule="evenodd"/><path fill="#000000" fill-opacity="0.0" d="m46.27559 235.01575l0 0c0 -43.03473 24.684273 -77.921265 55.133858 -77.921265l0 0c14.622414 0 28.645927 8.209549 38.985527 22.822617c10.3396 14.613068 16.14833 34.432648 16.14833 55.098648l0 0c0 43.03473 -24.684265 77.921265 -55.133858 77.921265l0 0c-30.449585 0 -55.133858 -34.886536 -55.133858 -77.921265z" fill-rule="evenodd"/><path stroke="#ff0000" stroke-width="3.0" stroke-linejoin="round" stroke-linecap="butt" d="m46.27559 235.01575l0 0c0 -43.03473 24.684273 -77.921265 55.133858 -77.921265l0 0c14.622414 0 28.645927 8.209549 38.985527 22.822617c10.3396 14.613068 16.14833 34.432648 16.14833 55.098648l0 0c0 43.03473 -24.684265 77.921265 -55.133858 77.921265l0 0c-30.449585 0 -55.133858 -34.886536 -55.133858 -77.921265z" fill-rule="evenodd"/><path fill="#000000" fill-opacity="0.0" d="m36.144356 143.01575l67.11811 0l0 48.472443l-67.11811 0z" fill-rule="evenodd"/><path fill="#000000" d="m54.081856 175.05576l-2.109375 0l0 -13.4375q-0.75 0.71875 -2.0 1.453125q-1.234375 0.71875 -2.21875 1.078125l0 -2.03125q1.78125 -0.828125 3.09375 -2.015625q1.328125 -1.1875 1.875 -2.296875l1.359375 0l0 17.25z" fill-rule="nonzero"/><path fill="#000000" fill-opacity="0.0" d="m253.96326 167.25197l0 0c0 -43.03472 24.684265 -77.92126 55.13385 -77.92126l0 0c14.622406 0 28.645935 8.209534 38.985535 22.822609c10.3396 14.613068 16.148315 34.432648 16.148315 55.098648l0 0c0 43.03473 -24.684265 77.921265 -55.13385 77.921265l0 0c-30.449585 0 -55.13385 -34.886536 -55.13385 -77.921265z" fill-rule="evenodd"/><path stroke="#ff0000" stroke-width="3.0" stroke-linejoin="round" stroke-linecap="butt" d="m253.96326 167.25197l0 0c0 -43.03472 24.684265 -77.92126 55.13385 -77.92126l0 0c14.622406 0 28.645935 8.209534 38.985535 22.822609c10.3396 14.613068 16.148315 34.432648 16.148315 55.098648l0 0c0 43.03473 -24.684265 77.921265 -55.13385 77.921265l0 0c-30.449585 0 -55.13385 -34.886536 -55.13385 -77.921265z" fill-rule="evenodd"/><path fill="#000000" fill-opacity="0.0" d="m330.71915 59.61155l67.11813 0l0 48.472443l-67.11813 0z" fill-rule="evenodd"/><path fill="#000000" d="m351.79727 89.6203l0 2.03125l-11.34375 0q-0.03125 -0.765625 0.234375 -1.46875q0.4375 -1.15625 1.390625 -2.28125q0.953125 -1.125 2.765625 -2.609375q2.796875 -2.296875 3.78125 -3.625q0.984375 -1.34375 0.984375 -2.546875q0 -1.25 -0.90625 -2.109375q-0.890625 -0.859375 -2.328125 -0.859375q-1.515625 0 -2.4375 0.921875q-0.90625 0.90625 -0.921875 2.515625l-2.171875 -0.21875q0.21875 -2.421875 1.671875 -3.6875q1.453125 -1.28125 3.90625 -1.28125q2.46875 0 3.90625 1.375q1.453125 1.359375 1.453125 3.390625q0 1.03125 -0.421875 2.03125q-0.421875 1.0 -1.40625 2.109375q-0.96875 1.09375 -3.25 3.015625q-1.890625 1.59375 -2.4375 2.15625q-0.53125 0.5625 -0.890625 1.140625l8.421875 0z" fill-rule="nonzero"/><path fill="#000000" fill-opacity="0.0" d="m96.97638 164.93964l0 0c0 -43.03473 30.078003 -77.921265 67.18111 -77.921265l0 0c17.817535 0 34.905304 8.209541 47.50421 22.822609c12.598892 14.613075 19.67688 34.432655 19.67688 55.098656l0 0c0 43.034714 -30.078003 77.92125 -67.18109 77.92125l0 0c-37.103104 0 -67.18111 -34.886536 -67.18111 -77.92125z" fill-rule="evenodd"/><path stroke="#ff0000" stroke-width="3.0" stroke-linejoin="round" stroke-linecap="butt" d="m96.97638 164.93964l0 0c0 -43.03473 30.078003 -77.921265 67.18111 -77.921265l0 0c17.817535 0 34.905304 8.209541 47.50421 22.822609c12.598892 14.613075 19.67688 34.432655 19.67688 55.098656l0 0c0 43.034714 -30.078003 77.92125 -67.18109 77.92125l0 0c-37.103104 0 -67.18111 -34.886536 -67.18111 -77.92125z" fill-rule="evenodd"/><path fill="#000000" fill-opacity="0.0" d="m96.97638 62.48294l67.1181 0l0 48.472443l-67.1181 0z" fill-rule="evenodd"/><path fill="#000000" d="m106.992004 89.99169l2.109375 -0.28125q0.359375 1.78125 1.234375 2.578125q0.875 0.796875 2.125 0.796875q1.484375 0 2.5 -1.03125q1.03125 -1.03125 1.03125 -2.5625q0 -1.453125 -0.953125 -2.390625q-0.9375 -0.953125 -2.40625 -0.953125q-0.59375 0 -1.484375 0.234375l0.234375 -1.84375q0.203125 0.015625 0.34375 0.015625q1.34375 0 2.421875 -0.703125q1.078125 -0.703125 1.078125 -2.15625q0 -1.171875 -0.796875 -1.921875q-0.78125 -0.765625 -2.015625 -0.765625q-1.234375 0 -2.0625 0.78125q-0.8125 0.765625 -1.046875 2.3125l-2.109375 -0.375q0.390625 -2.125 1.75 -3.28125q1.375 -1.171875 3.421875 -1.171875q1.40625 0 2.578125 0.609375q1.1875 0.59375 1.8125 1.640625q0.640625 1.046875 0.640625 2.21875q0 1.109375 -0.609375 2.03125q-0.59375 0.90625 -1.765625 1.4375q1.53125 0.359375 2.375 1.46875q0.84375 1.109375 0.84375 2.765625q0 2.25 -1.640625 3.828125q-1.640625 1.5625 -4.15625 1.5625q-2.265625 0 -3.765625 -1.34375q-1.484375 -1.359375 -1.6875 -3.5z" fill-rule="nonzero"/></g></svg>