<svg version="1.1" viewBox="0.0 0.0 886.002624671916 304.36745406824144" fill="none" stroke="none" stroke-linecap="square" stroke-miterlimit="10" xmlns:xlink="http://www.w3.org/1999/xlink" xmlns="http://www.w3.org/2000/svg"><clipPath id="p.0"><path d="m0 0l886.0026 0l0 304.36746l-886.0026 0l0 -304.36746z" clip-rule="nonzero"/></clipPath><g clip-path="url(#p.0)"><path fill="#000000" fill-opacity="0.0" d="m0 0l886.0026 0l0 304.36746l-886.0026 0z" fill-rule="evenodd"/><path stroke="#9e9e9e" stroke-width="1.0" stroke-linecap="butt" d="m71.46457 60.12336l0 48.992126" fill-rule="nonzero"/><path stroke="#9e9e9e" stroke-width="1.0" stroke-linecap="butt" d="m117.301834 60.12336l0 48.992126" fill-rule="nonzero"/><path stroke="#9e9e9e" stroke-width="1.0" stroke-linecap="butt" d="m163.13911 60.12336l0 48.992126" fill-rule="nonzero"/><path stroke="#9e9e9e" stroke-width="1.0" stroke-linecap="butt" d="m208.97638 60.12336l0 48.992126" fill-rule="nonzero"/><path stroke="#9e9e9e" stroke-width="1.0" stroke-linecap="butt" d="m254.81364 60.12336l0 48.992126" fill-rule="nonzero"/><path stroke="#9e9e9e" stroke-width="1.0" stroke-linecap="butt" d="m300.6509 60.12336l0 48.992126" fill-rule="nonzero"/><path stroke="#9e9e9e" stroke-width="1.0" stroke-linecap="butt" d="m346.4882 60.12336l0 48.992126" fill-rule="nonzero"/><path stroke="#9e9e9e" stroke-width="1.0" stroke-linecap="butt" d="m392.32547 60.12336l0 48.992126" fill-rule="nonzero"/><path stroke="#9e9e9e" stroke-width="1.0" stroke-linecap="butt" d="m438.16272 60.12336l0 48.992126" fill-rule="nonzero"/><path stroke="#9e9e9e" stroke-width="1.0" stroke-linecap="butt" d="m70.96588 60.622047l367.69553 0" fill-rule="nonzero"/><path stroke="#9e9e9e" stroke-width="1.0" stroke-linecap="butt" d="m70.96588 108.6168l367.69553 0" fill-rule="nonzero"/><path fill="#000000" d="m81.605194 77.72455l0 -2.015625l11.125 0l0 1.640625q-1.640625 1.734375 -3.265625 4.640625q-1.609375 2.890625 -2.484375 5.953125q-0.625 2.15625 -0.8125 4.71875l-2.15625 0q0.03125 -2.03125 0.78125 -4.890625q0.765625 -2.875 2.1875 -5.546875q1.4375 -2.671875 3.03125 -4.5l-8.40625 0z" fill-rule="nonzero"/><path fill="#000000" d="m130.55183 83.34955q-1.3125 -0.484375 -1.953125 -1.375q-0.625 -0.890625 -0.625 -2.140625q0 -1.875 1.34375 -3.140625q1.34375 -1.28125 3.578125 -1.28125q2.25 0 3.625 1.3125q1.375 1.296875 1.375 3.171875q0 1.203125 -0.625 2.09375q-0.625 0.875 -1.90625 1.359375q1.578125 0.515625 2.40625 1.671875q0.828125 1.140625 0.828125 2.734375q0 2.203125 -1.5625 3.703125q-1.5625 1.5 -4.09375 1.5q-2.546875 0 -4.109375 -1.5q-1.5625 -1.515625 -1.5625 -3.765625q0 -1.671875 0.84375 -2.796875q0.859375 -1.140625 2.4375 -1.546875zm-0.421875 -3.578125q0 1.21875 0.78125 2.0q0.78125 0.765625 2.03125 0.765625q1.21875 0 2.0 -0.765625q0.78125 -0.765625 0.78125 -1.890625q0 -1.15625 -0.8125 -1.9375q-0.796875 -0.796875 -1.984375 -0.796875q-1.203125 0 -2.0 0.78125q-0.796875 0.765625 -0.796875 1.84375zm-0.6875 7.9375q0 0.890625 0.421875 1.734375q0.4375 0.84375 1.28125 1.3125q0.84375 0.46875 1.8125 0.46875q1.515625 0 2.5 -0.96875q0.984375 -0.984375 0.984375 -2.484375q0 -1.515625 -1.015625 -2.515625q-1.015625 -1.0 -2.53125 -1.0q-1.5 0 -2.484375 0.984375q-0.96875 0.984375 -0.96875 2.46875z" fill-rule="nonzero"/><path fill="#000000" d="m184.07661 79.6933l-2.09375 0.15625q-0.28125 -1.234375 -0.796875 -1.796875q-0.859375 -0.90625 -2.109375 -0.90625q-1.0 0 -1.765625 0.5625q-1.0 0.71875 -1.578125 2.125q-0.5625 1.390625 -0.59375 3.96875q0.765625 -1.15625 1.859375 -1.71875q1.109375 -0.5625 2.3125 -0.5625q2.109375 0 3.59375 1.546875q1.484375 1.546875 1.484375 4.015625q0 1.609375 -0.703125 3.0q-0.6875 1.390625 -1.90625 2.140625q-1.21875 0.734375 -2.765625 0.734375q-2.640625 0 -4.3125 -1.9375q-1.65625 -1.953125 -1.65625 -6.40625q0 -4.96875 1.84375 -7.234375q1.59375 -1.96875 4.3125 -1.96875q2.03125 0 3.328125 1.140625q1.296875 1.125 1.546875 3.140625zm-8.609375 7.40625q0 1.078125 0.453125 2.078125q0.46875 1.0 1.296875 1.53125q0.84375 0.515625 1.75 0.515625q1.34375 0 2.296875 -1.078125q0.96875 -1.078125 0.96875 -2.9375q0 -1.78125 -0.953125 -2.796875q-0.953125 -1.03125 -2.390625 -1.03125q-1.421875 0 -2.421875 1.03125q-1.0 1.015625 -1.0 2.6875z" fill-rule="nonzero"/><path fill="#000000" d="m218.97638 88.16205l2.21875 -0.1875q0.234375 1.609375 1.125 2.4375q0.90625 0.8125 2.171875 0.8125q1.53125 0 2.578125 -1.140625q1.0625 -1.15625 1.0625 -3.0625q0 -1.796875 -1.015625 -2.84375q-1.015625 -1.046875 -2.65625 -1.046875q-1.015625 0 -1.84375 0.46875q-0.8125 0.453125 -1.28125 1.203125l-1.984375 -0.265625l1.65625 -8.828125l8.546875 0l0 2.015625l-6.859375 0l-0.921875 4.625q1.546875 -1.078125 3.25 -1.078125q2.25 0 3.796875 1.5625q1.546875 1.546875 1.546875 4.0q0 2.328125 -1.359375 4.03125q-1.65625 2.09375 -4.515625 2.09375q-2.34375 0 -3.828125 -1.3125q-1.484375 -1.3125 -1.6875 -3.484375z" fill-rule="nonzero"/><path fill="#000000" d="m271.57928 92.66205l0 -4.109375l-7.453125 0l0 -1.9375l7.828125 -11.140625l1.734375 0l0 11.140625l2.3125 0l0 1.9375l-2.3125 0l0 4.109375l-2.109375 0zm0 -6.046875l0 -7.75l-5.390625 7.75l5.390625 0z" fill-rule="nonzero"/><path fill="#000000" d="m321.72903 90.6308l0 2.03125l-11.34375 0q-0.03125 -0.765625 0.234375 -1.46875q0.4375 -1.15625 1.390625 -2.28125q0.953125 -1.125 2.765625 -2.609375q2.796875 -2.296875 3.78125 -3.625q0.984375 -1.34375 0.984375 -2.546875q0 -1.25 -0.90625 -2.109375q-0.890625 -0.859375 -2.328125 -0.859375q-1.515625 0 -2.4375 0.921875q-0.90625 0.90625 -0.921875 2.515625l-2.171875 -0.21875q0.21875 -2.421875 1.671875 -3.6875q1.453125 -1.28125 3.90625 -1.28125q2.46875 0 3.90625 1.375q1.453125 1.359375 1.453125 3.390625q0 1.03125 -0.421875 2.03125q-0.421875 1.0 -1.40625 2.109375q-0.96875 1.09375 -3.25 3.015625q-1.890625 1.59375 -2.4375 2.15625q-0.53125 0.5625 -0.890625 1.140625l8.421875 0z" fill-rule="nonzero"/><path fill="#000000" d="m356.5038 88.1308l2.109375 -0.28125q0.359375 1.78125 1.234375 2.578125q0.875 0.796875 2.125 0.796875q1.484375 0 2.5 -1.03125q1.03125 -1.03125 1.03125 -2.5625q0 -1.453125 -0.953125 -2.390625q-0.9375 -0.953125 -2.40625 -0.953125q-0.59375 0 -1.484375 0.234375l0.234375 -1.84375q0.203125 0.015625 0.34375 0.015625q1.34375 0 2.421875 -0.703125q1.078125 -0.703125 1.078125 -2.15625q0 -1.171875 -0.796875 -1.921875q-0.78125 -0.765625 -2.015625 -0.765625q-1.234375 0 -2.0625 0.78125q-0.8125 0.765625 -1.046875 2.3125l-2.109375 -0.375q0.390625 -2.125 1.75 -3.28125q1.375 -1.171875 3.421875 -1.171875q1.40625 0 2.578125 0.609375q1.1875 0.59375 1.8125 1.640625q0.640625 1.046875 0.640625 2.21875q0 1.109375 -0.609375 2.03125q-0.59375 0.90625 -1.765625 1.4375q1.53125 0.359375 2.375 1.46875q0.84375 1.109375 0.84375 2.765625q0 2.25 -1.640625 3.828125q-1.640625 1.5625 -4.15625 1.5625q-2.265625 0 -3.765625 -1.34375q-1.484375 -1.359375 -1.6875 -3.5z" fill-rule="nonzero"/><path fill="#000000" d="m410.26297 92.66205l-2.109375 0l0 -13.4375q-0.75 0.71875 -2.0 1.453125q-1.234375 0.71875 -2.21875 1.078125l0 -2.03125q1.78125 -0.828125 3.09375 -2.015625q1.328125 -1.1875 1.875 -2.296875l1.359375 0l0 17.25z" fill-rule="nonzero"/><path fill="#000000" fill-opacity="0.0" d="m21.217848 22.598425l72.09448 0l0 48.472443l-72.09448 0z" fill-rule="evenodd"/><path fill="#000000" d="m31.780348 54.638428l0 -12.453125l1.8906231 0l0 1.890625q0.734375 -1.328125 1.34375 -1.75q0.625 -0.421875 1.359375 -0.421875q1.0625 0 2.171875 0.6875l-0.734375 1.953125q-0.765625 -0.453125 -1.546875 -0.453125q-0.6875 0 -1.25 0.421875q-0.546875 0.40625 -0.78125 1.140625q-0.34375 1.125 -0.34375 2.46875l0 6.515625l-2.109373 0zm7.2265606 -6.21875q0 -3.46875 1.921875 -5.125q1.609375 -1.390625 3.921875 -1.390625q2.5625 0 4.1875 1.6875q1.625 1.6875 1.625 4.640625q0 2.40625 -0.71875 3.78125q-0.71875 1.375 -2.09375 2.140625q-1.375 0.765625 -3.0 0.765625q-2.625 0 -4.234375 -1.671875q-1.609375 -1.6875 -1.609375 -4.828125zm2.171875 0q0 2.390625 1.03125 3.578125q1.046875 1.1875 2.640625 1.1875q1.5625 0 2.609375 -1.1875q1.046875 -1.203125 1.046875 -3.65625q0 -2.3125 -1.0625 -3.5q-1.046875 -1.1875 -2.59375 -1.1875q-1.59375 0 -2.640625 1.1875q-1.03125 1.1875 -1.03125 3.578125zm11.175781 0q0 -3.46875 1.921875 -5.125q1.609375 -1.390625 3.921875 -1.390625q2.5625 0 4.1875 1.6875q1.6250038 1.6875 1.6250038 4.640625q0 2.40625 -0.7187538 3.78125q-0.71875 1.375 -2.09375 2.140625q-1.375 0.765625 -3.0 0.765625q-2.625 0 -4.234375 -1.671875q-1.609375 -1.6875 -1.609375 -4.828125zm2.171875 0q0 2.390625 1.03125 3.578125q1.046875 1.1875 2.640625 1.1875q1.5625 0 2.609375 -1.1875q1.046875 -1.203125 1.046875 -3.65625q0 -2.3125 -1.0625 -3.5q-1.046875 -1.1875 -2.59375 -1.1875q-1.59375 0 -2.640625 1.1875q-1.03125 1.1875 -1.03125 3.578125zm16.56641 4.328125l0.3125 1.859375q-0.890625 0.203125 -1.59375 0.203125q-1.15625 0 -1.796875 -0.359375q-0.625 -0.375 -0.890625 -0.96875q-0.25 -0.59375 -0.25 -2.484375l0 -7.171875l-1.546875 0l0 -1.640625l1.546875 0l0 -3.078125l2.09375 -1.265625l0 4.34375l2.125 0l0 1.640625l-2.125 0l0 7.28125q0 0.90625 0.109375 1.171875q0.125 0.25 0.375 0.40625q0.25 0.140625 0.71875 0.140625q0.34375 0 0.921875 -0.078125z" fill-rule="nonzero"/><path fill="#000000" fill-opacity="0.0" d="m48.879265 57.272964l22.614174 20.661415" fill-rule="evenodd"/><path stroke="#1f497d" stroke-width="1.0" stroke-linejoin="round" stroke-linecap="butt" d="m48.879265 57.272964l18.1846 16.614342" fill-rule="evenodd"/><path fill="#1f497d" stroke="#1f497d" stroke-width="1.0" stroke-linecap="butt" d="m65.949745 75.10672l4.464424 1.8415909l-2.2361908 -4.2804184z" fill-rule="evenodd"/><path fill="#000000" fill-opacity="0.0" d="m91.73753 98.18372c2.8569565 2.4024506 10.323708 13.960197 17.141731 14.414703c6.8180237 0.45450592 19.805336 -9.739723 23.76641 -11.687668" fill-rule="evenodd"/><path stroke="#1f497d" stroke-width="1.0" stroke-linejoin="round" stroke-linecap="butt" stroke-dasharray="1.0,3.0" d="m91.73753 98.18372c2.8569565 2.4024506 10.323708 13.96019 17.141731 14.414703c3.4090195 0.22725677 8.360352 -2.2076797 12.954559 -4.942917c1.148552 -0.6838074 2.2747955 -1.3863754 3.349022 -2.0708237c0.537117 -0.34222412 1.0612411 -0.6799164 1.5686417 -1.0084457l0.78933716 -0.51260376" fill-rule="evenodd"/><path fill="#1f497d" stroke="#1f497d" stroke-width="1.0" stroke-linecap="butt" d="m128.40878 105.46894l2.9930878 -3.789978l-4.7289886 0.9793701z" fill-rule="evenodd"/><path fill="#000000" fill-opacity="0.0" d="m87.45145 103.24672c4.935257 4.156166 15.131233 25.261597 29.61155 24.937012c14.480309 -0.32458496 47.725273 -22.403763 57.270332 -26.884521" fill-rule="evenodd"/><path stroke="#1f497d" stroke-width="1.0" stroke-linejoin="round" stroke-linecap="butt" stroke-dasharray="1.0,3.0" d="m87.45145 103.24672c4.9352493 4.156166 15.131233 25.261597 29.61155 24.937012c7.2401505 -0.16230774 19.17147 -5.763237 30.485893 -11.8836975c5.657196 -3.060234 11.160187 -6.2503357 15.845428 -8.955444c1.1713104 -0.67626953 2.291504 -1.3222351 3.350235 -1.9282684c0.52937317 -0.30303192 1.0433655 -0.59606934 1.5406799 -0.87792206l0.75042725 -0.4223404" fill-rule="evenodd"/><path fill="#1f497d" stroke="#1f497d" stroke-width="1.0" stroke-linecap="butt" d="m169.8111 105.57445l3.2314606 -3.588913l-4.7823486 0.6721344z" fill-rule="evenodd"/><path fill="#000000" fill-opacity="0.0" d="m152.12599 65.84494c5.9089966 -3.1819763 24.479874 -19.026684 35.454056 -19.091862c10.974197 -0.06518173 25.325897 15.583988 30.391083 18.700787" fill-rule="evenodd"/><path stroke="#1f497d" stroke-width="1.0" stroke-linejoin="round" stroke-linecap="butt" stroke-dasharray="1.0,3.0" d="m152.12599 65.84494c5.9089966 -3.1819763 24.479874 -19.026684 35.454056 -19.091866c5.487091 -0.032585144 11.818573 3.863411 17.411423 8.157154c2.7964172 2.1468735 5.4081726 4.393181 7.6374207 6.297573l0.62750244 0.53510284" fill-rule="evenodd"/><path fill="#1f497d" stroke="#1f497d" stroke-width="1.0" stroke-linecap="butt" d="m212.2348 63.04082l4.5875854 1.5088692l-2.5444183 -4.104702z" fill-rule="evenodd"/><path fill="#000000" fill-opacity="0.0" d="m145.53018 64.67133c10.514877 -4.3499527 42.9637 -26.230095 63.089233 -26.099735c20.12555 0.13035965 48.053375 22.401577 57.664062 26.881893" fill-rule="evenodd"/><path stroke="#1f497d" stroke-width="1.0" stroke-linejoin="round" stroke-linecap="butt" stroke-dasharray="1.0,3.0" d="m145.53018 64.67133c10.514877 -4.3499527 42.963684 -26.230095 63.089233 -26.099735c10.06279 0.06517792 22.076126 5.665577 32.7751 11.809711c5.3495026 3.072071 10.370407 6.280079 14.654587 9.000084c1.0710449 0.6800003 2.0960693 1.3295021 3.068634 1.938755c0.4862976 0.30462646 0.95947266 0.5991936 1.4187927 0.882473l0.51400757 0.31545258" fill-rule="evenodd"/><path fill="#1f497d" stroke="#1f497d" stroke-width="1.0" stroke-linecap="butt" d="m260.24246 63.958637l4.765991 0.7796364l-3.1498108 -3.660759z" fill-rule="evenodd"/><path fill="#000000" fill-opacity="0.0" d="m199.68504 102.884514c9.541122 2.268158 38.419937 13.548553 57.24672 13.608925c18.826782 0.06036377 46.428253 -11.038933 55.713898 -13.246719" fill-rule="evenodd"/><path stroke="#1f497d" stroke-width="1.0" stroke-linejoin="round" stroke-linecap="butt" stroke-dasharray="1.0,3.0" d="m199.68504 102.884514c9.541107 2.268158 38.419937 13.548553 57.24672 13.608925c9.413391 0.030181885 21.020447 -2.7295456 31.434875 -5.7728043c5.2072144 -1.5216217 10.116272 -3.114128 14.303864 -4.464218c1.0469055 -0.33751678 2.048706 -0.6598892 2.9988098 -0.96221924l1.211853 -0.3829422" fill-rule="evenodd"/><path fill="#1f497d" stroke="#1f497d" stroke-width="1.0" stroke-linecap="butt" d="m307.33942 106.498146l3.9017334 -2.8458633l-4.818207 -0.32793427z" fill-rule="evenodd"/><path fill="#000000" fill-opacity="0.0" d="m195.39896 107.94751c13.24234 3.8272095 51.601044 23.681534 79.45407 22.963257c27.852997 -0.71829224 73.053345 -22.727478 87.66403 -27.272972" fill-rule="evenodd"/><path stroke="#1f497d" stroke-width="1.0" stroke-linejoin="round" stroke-linecap="butt" stroke-dasharray="1.0,3.0" d="m195.39896 107.94751c13.24234 3.8272095 51.601044 23.681534 79.45407 22.963257c13.926514 -0.35916138 32.18982 -6.0410156 48.797882 -12.201286c8.304016 -3.0801315 16.194244 -6.2798767 22.9216 -8.99366c3.363678 -1.3568954 6.4366455 -2.5923157 9.125275 -3.6305466c0.3360901 -0.12978363 0.6661377 -0.256485 0.99005127 -0.37994385l0.1730957 -0.06550598" fill-rule="evenodd"/><path fill="#1f497d" stroke="#1f497d" stroke-width="1.0" stroke-linecap="butt" d="m357.41205 107.1969l3.7268982 -3.071312l-4.8291626 -0.04283142z" fill-rule="evenodd"/><path fill="#000000" fill-opacity="0.0" d="m235.94751 64.67191c14.889053 -4.3499527 60.83658 -26.230095 89.33435 -26.099735c28.497772 0.13035965 68.04358 22.401577 81.65228 26.881893" fill-rule="evenodd"/><path stroke="#1f497d" stroke-width="1.0" stroke-linejoin="round" stroke-linecap="butt" stroke-dasharray="1.0,3.0" d="m235.94751 64.67191c14.889069 -4.3499565 60.83658 -26.230095 89.33435 -26.099735c14.248901 0.06518173 31.259796 5.665577 46.409546 11.809711c7.57489 3.072071 14.684448 6.280075 20.750885 9.000084c3.0332336 1.3600044 5.805603 2.5980072 8.244995 3.6360207l0.6497803 0.27444077" fill-rule="evenodd"/><path fill="#1f497d" stroke="#1f497d" stroke-width="1.0" stroke-linecap="butt" d="m400.74197 64.83325l4.82843 0.09413147l-3.6382751 -3.1757622z" fill-rule="evenodd"/><path fill="#000000" fill-opacity="0.0" d="m696.81525 62.24492l-33.165344 33.984253" fill-rule="evenodd"/><path stroke="#1f497d" stroke-width="1.0" stroke-linejoin="round" stroke-linecap="butt" d="m696.81525 62.24492l-33.165344 33.984253" fill-rule="evenodd"/><path fill="#000000" fill-opacity="0.0" d="m734.2084 62.24492l36.91339 32.44095" fill-rule="evenodd"/><path stroke="#1f497d" stroke-width="1.0" stroke-linejoin="round" stroke-linecap="butt" d="m734.2084 62.24492l36.91339 32.44095" fill-rule="evenodd"/><path fill="#000000" fill-opacity="0.0" d="m626.25354 127.066444l-29.88977 35.1811" fill-rule="evenodd"/><path stroke="#1f497d" stroke-width="1.0" stroke-linejoin="round" stroke-linecap="butt" d="m626.25354 127.066444l-29.88977 35.1811" fill-rule="evenodd"/><path fill="#000000" fill-opacity="0.0" d="m577.6578 199.46802l-12.062988 40.094482" fill-rule="evenodd"/><path stroke="#1f497d" stroke-width="1.0" stroke-linejoin="round" stroke-linecap="butt" d="m577.6578 199.46802l-12.062988 40.094482" fill-rule="evenodd"/><path fill="#000000" fill-opacity="0.0" d="m663.6467 127.066444l23.810974 35.1811" fill-rule="evenodd"/><path stroke="#1f497d" stroke-width="1.0" stroke-linejoin="round" stroke-linecap="butt" d="m663.6467 127.066444l23.810974 35.1811" fill-rule="evenodd"/><path fill="#000000" fill-opacity="0.0" d="m771.12494 125.50214l-12.125977 34.803146" fill-rule="evenodd"/><path stroke="#1f497d" stroke-width="1.0" stroke-linejoin="round" stroke-linecap="butt" d="m771.12494 125.50214l-12.125977 34.803146" fill-rule="evenodd"/><path fill="#eeece1" d="m689.07086 46.833332l0 0c0 -12.037197 11.838013 -21.795275 26.440979 -21.795275l0 0c14.602905 0 26.440918 9.758078 26.440918 21.795275l0 0c0 12.037201 -11.838013 21.795277 -26.440918 21.795277l0 0c-14.602966 0 -26.440979 -9.758076 -26.440979 -21.795277z" fill-rule="evenodd"/><path stroke="#1f497d" stroke-width="1.0" stroke-linejoin="round" stroke-linecap="butt" d="m689.07086 46.833332l0 0c0 -12.037197 11.838013 -21.795275 26.440979 -21.795275l0 0c14.602905 0 26.440918 9.758078 26.440918 21.795275l0 0c0 12.037201 -11.838013 21.795277 -26.440918 21.795277l0 0c-14.602966 0 -26.440979 -9.758076 -26.440979 -21.795277z" fill-rule="evenodd"/><path fill="#000000" d="m709.97864 40.435833l0 -2.015625l11.125 0l0 1.640625q-1.640625 1.734375 -3.265625 4.640625q-1.609375 2.890625 -2.484375 5.953125q-0.625 2.15625 -0.8125 4.71875l-2.15625 0q0.03125 -2.03125 0.78125 -4.890625q0.765625 -2.875 2.1875 -5.546875q1.4375 -2.671875 3.03125 -4.5l-8.40625 0z" fill-rule="nonzero"/><path fill="#eeece1" d="m618.5092 111.654854l0 0c0 -12.037193 11.838013 -21.795273 26.440918 -21.795273l0 0c14.602905 0 26.440918 9.75808 26.440918 21.795273l0 0c0 12.037201 -11.838013 21.79528 -26.440918 21.79528l0 0c-14.602905 0 -26.440918 -9.75808 -26.440918 -21.79528z" fill-rule="evenodd"/><path stroke="#1f497d" stroke-width="1.0" stroke-linejoin="round" stroke-linecap="butt" d="m618.5092 111.654854l0 0c0 -12.037193 11.838013 -21.795273 26.440918 -21.795273l0 0c14.602905 0 26.440918 9.75808 26.440918 21.795273l0 0c0 12.037201 -11.838013 21.79528 -26.440918 21.79528l0 0c-14.602905 0 -26.440918 -9.75808 -26.440918 -21.79528z" fill-rule="evenodd"/><path fill="#000000" d="m642.5263 110.882355q-1.3125 -0.484375 -1.953125 -1.375q-0.625 -0.890625 -0.625 -2.140625q0 -1.875 1.34375 -3.140625q1.34375 -1.28125 3.578125 -1.28125q2.25 0 3.625 1.3125q1.375 1.296875 1.375 3.171875q0 1.203125 -0.625 2.09375q-0.625 0.875 -1.90625 1.359375q1.578125 0.515625 2.40625 1.671875q0.828125 1.140625 0.828125 2.734375q0 2.203125 -1.5625 3.703125q-1.5625 1.5 -4.09375 1.5q-2.546875 0 -4.109375 -1.5q-1.5625 -1.515625 -1.5625 -3.765625q0 -1.671875 0.84375 -2.796875q0.859375 -1.140625 2.4375 -1.546875zm-0.421875 -3.578125q0 1.21875 0.78125 2.0q0.78125 0.765625 2.03125 0.765625q1.21875 0 2.0 -0.765625q0.78125 -0.765625 0.78125 -1.890625q0 -1.15625 -0.8125 -1.9375q-0.796875 -0.796875 -1.984375 -0.796875q-1.203125 0 -2.0 0.78125q-0.796875 0.765625 -0.796875 1.84375zm-0.6875 7.9375q0 0.890625 0.421875 1.734375q0.4375 0.84375 1.28125 1.3125q0.84375 0.46875 1.8125 0.46875q1.515625 0 2.5 -0.96875q0.984375 -0.984375 0.984375 -2.484375q0 -1.515625 -1.015625 -2.515625q-1.015625 -1.0 -2.53125 -1.0q-1.5 0 -2.484375 0.984375q-0.96875 0.984375 -0.96875 2.46875z" fill-rule="nonzero"/><path fill="#eeece1" d="m763.38055 110.09055l0 0c0 -12.037201 11.838013 -21.79528 26.440979 -21.79528l0 0c14.602905 0 26.440918 9.75808 26.440918 21.79528l0 0c0 12.037193 -11.838013 21.79528 -26.440918 21.79528l0 0c-14.602966 0 -26.440979 -9.758087 -26.440979 -21.79528z" fill-rule="evenodd"/><path stroke="#1f497d" stroke-width="1.0" stroke-linejoin="round" stroke-linecap="butt" d="m763.38055 110.09055l0 0c0 -12.037201 11.838013 -21.79528 26.440979 -21.79528l0 0c14.602905 0 26.440918 9.75808 26.440918 21.79528l0 0c0 12.037193 -11.838013 21.79528 -26.440918 21.79528l0 0c-14.602966 0 -26.440979 -9.758087 -26.440979 -21.79528z" fill-rule="evenodd"/><path fill="#000000" d="m795.0852 105.6618l-2.09375 0.15625q-0.28125 -1.234375 -0.796875 -1.796875q-0.859375 -0.90625 -2.109375 -0.90625q-1.0 0 -1.765625 0.5625q-1.0 0.71875 -1.578125 2.125q-0.5625 1.390625 -0.59375 3.96875q0.765625 -1.15625 1.859375 -1.71875q1.109375 -0.5625 2.3125 -0.5625q2.109375 0 3.59375 1.546875q1.484375 1.546875 1.484375 4.015625q0 1.609375 -0.703125 3.0q-0.6875 1.390625 -1.90625 2.140625q-1.21875 0.734375 -2.765625 0.734375q-2.640625 0 -4.3125 -1.9375q-1.65625 -1.953125 -1.65625 -6.40625q0 -4.96875 1.84375 -7.234375q1.59375 -1.96875 4.3125 -1.96875q2.03125 0 3.328125 1.140625q1.296875 1.125 1.546875 3.140625zm-8.609375 7.40625q0 1.078125 0.453125 2.078125q0.46875 1.0 1.296875 1.53125q0.84375 0.515625 1.75 0.515625q1.34375 0 2.296875 -1.078125q0.96875 -1.078125 0.96875 -2.9375q0 -1.78125 -0.953125 -2.796875q-0.953125 -1.03125 -2.390625 -1.03125q-1.421875 0 -2.421875 1.03125q-1.0 1.015625 -1.0 2.6875z" fill-rule="nonzero"/><path fill="#eeece1" d="m569.9134 184.05643l0 0c0 -12.037201 11.838013 -21.795273 26.440918 -21.795273l0 0c14.602966 0 26.440979 9.758072 26.440979 21.795273l0 0c0 12.037201 -11.838013 21.795273 -26.440979 21.795273l0 0c-14.602905 0 -26.440918 -9.758072 -26.440918 -21.795273z" fill-rule="evenodd"/><path stroke="#1f497d" stroke-width="1.0" stroke-linejoin="round" stroke-linecap="butt" d="m569.9134 184.05643l0 0c0 -12.037201 11.838013 -21.795273 26.440918 -21.795273l0 0c14.602966 0 26.440979 9.758072 26.440979 21.795273l0 0c0 12.037201 -11.838013 21.795273 -26.440979 21.795273l0 0c-14.602905 0 -26.440918 -9.758072 -26.440918 -21.795273z" fill-rule="evenodd"/><path fill="#000000" d="m590.6805 188.09644l2.21875 -0.1875q0.234375 1.609375 1.125 2.4375q0.90625 0.8125 2.171875 0.8125q1.53125 0 2.578125 -1.140625q1.0625 -1.15625 1.0625 -3.0625q0 -1.796875 -1.015625 -2.84375q-1.015625 -1.046875 -2.65625 -1.046875q-1.015625 0 -1.84375 0.46875q-0.8125 0.453125 -1.28125 1.203125l-1.984375 -0.265625l1.65625 -8.828125l8.546875 0l0 2.015625l-6.859375 0l-0.921875 4.625q1.546875 -1.078125 3.25 -1.078125q2.25 0 3.796875 1.5625q1.546875 1.546875 1.546875 4.0q0 2.328125 -1.359375 4.03125q-1.65625 2.09375 -4.515625 2.09375q-2.34375 0 -3.828125 -1.3125q-1.484375 -1.3125 -1.6875 -3.484375z" fill-rule="nonzero"/><path fill="#eeece1" d="m661.0026 184.05643l0 0c0 -12.037201 11.838013 -21.795273 26.440918 -21.795273l0 0c14.602966 0 26.440979 9.758072 26.440979 21.795273l0 0c0 12.037201 -11.838013 21.795273 -26.440979 21.795273l0 0c-14.602905 0 -26.440918 -9.758072 -26.440918 -21.795273z" fill-rule="evenodd"/><path stroke="#1f497d" stroke-width="1.0" stroke-linejoin="round" stroke-linecap="butt" d="m661.0026 184.05643l0 0c0 -12.037201 11.838013 -21.795273 26.440918 -21.795273l0 0c14.602966 0 26.440979 9.758072 26.440979 21.795273l0 0c0 12.037201 -11.838013 21.795273 -26.440979 21.795273l0 0c-14.602905 0 -26.440918 -9.758072 -26.440918 -21.795273z" fill-rule="evenodd"/><path fill="#000000" d="m688.53534 192.59644l0 -4.109375l-7.453125 0l0 -1.9375l7.828125 -11.140625l1.734375 0l0 11.140625l2.3125 0l0 1.9375l-2.3125 0l0 4.109375l-2.109375 0zm0 -6.046875l0 -7.75l-5.390625 7.75l5.390625 0z" fill-rule="nonzero"/><path fill="#eeece1" d="m732.54596 182.1063l0 0c0 -12.037186 11.838013 -21.795273 26.440918 -21.795273l0 0c14.602905 0 26.440918 9.758087 26.440918 21.795273l0 0c0 12.037201 -11.838013 21.795288 -26.440918 21.795288l0 0c-14.602905 0 -26.440918 -9.758087 -26.440918 -21.795288z" fill-rule="evenodd"/><path stroke="#1f497d" stroke-width="1.0" stroke-linejoin="round" stroke-linecap="butt" d="m732.54596 182.1063l0 0c0 -12.037186 11.838013 -21.795273 26.440918 -21.795273l0 0c14.602905 0 26.440918 9.758087 26.440918 21.795273l0 0c0 12.037201 -11.838013 21.795288 -26.440918 21.795288l0 0c-14.602905 0 -26.440918 -9.758087 -26.440918 -21.795288z" fill-rule="evenodd"/><path fill="#000000" d="m764.3912 188.61505l0 2.03125l-11.34375 0q-0.03125 -0.765625 0.234375 -1.46875q0.4375 -1.15625 1.390625 -2.28125q0.953125 -1.125 2.765625 -2.609375q2.796875 -2.296875 3.78125 -3.625q0.984375 -1.34375 0.984375 -2.546875q0 -1.25 -0.90625 -2.109375q-0.890625 -0.859375 -2.328125 -0.859375q-1.515625 0 -2.4375 0.921875q-0.90625 0.90625 -0.921875 2.515625l-2.171875 -0.21875q0.21875 -2.421875 1.671875 -3.6875q1.453125 -1.28125 3.90625 -1.28125q2.46875 0 3.90625 1.375q1.453125 1.359375 1.453125 3.390625q0 1.03125 -0.421875 2.03125q-0.421875 1.0 -1.40625 2.109375q-0.96875 1.09375 -3.25 3.015625q-1.890625 1.59375 -2.4375 2.15625q-0.53125 0.5625 -0.890625 1.140625l8.421875 0z" fill-rule="nonzero"/><path fill="#eeece1" d="m539.1522 261.3609l0 0c0 -12.037201 11.838013 -21.795288 26.440979 -21.795288l0 0c14.602905 0 26.440918 9.758087 26.440918 21.795288l0 0c0 12.037201 -11.838013 21.795258 -26.440918 21.795258l0 0c-14.602966 0 -26.440979 -9.758057 -26.440979 -21.795258z" fill-rule="evenodd"/><path stroke="#1f497d" stroke-width="1.0" stroke-linejoin="round" stroke-linecap="butt" d="m539.1522 261.3609l0 0c0 -12.037201 11.838013 -21.795288 26.440979 -21.795288l0 0c14.602905 0 26.440918 9.758087 26.440918 21.795288l0 0c0 12.037201 -11.838013 21.795258 -26.440918 21.795258l0 0c-14.602966 0 -26.440979 -9.758057 -26.440979 -21.795258z" fill-rule="evenodd"/><path fill="#000000" d="m567.8569 269.90088l-2.109375 0l0 -13.4375q-0.75 0.71875 -2.0 1.453125q-1.234375 0.71875 -2.21875 1.078125l0 -2.03125q1.78125 -0.828125 3.09375 -2.0156097q1.328125 -1.1875 1.875 -2.296875l1.359375 0l0 17.249985z" fill-rule="nonzero"/><path fill="#eeece1" d="m802.4068 181.56693l0 0c0 -12.037201 11.838013 -21.795273 26.440979 -21.795273l0 0c14.602905 0 26.440918 9.758072 26.440918 21.795273l0 0c0 12.037201 -11.838013 21.795273 -26.440918 21.795273l0 0c-14.602966 0 -26.440979 -9.758072 -26.440979 -21.795273z" fill-rule="evenodd"/><path stroke="#1f497d" stroke-width="1.0" stroke-linejoin="round" stroke-linecap="butt" d="m802.4068 181.56693l0 0c0 -12.037201 11.838013 -21.795273 26.440979 -21.795273l0 0c14.602905 0 26.440918 9.758072 26.440918 21.795273l0 0c0 12.037201 -11.838013 21.795273 -26.440918 21.795273l0 0c-14.602966 0 -26.440979 -9.758072 -26.440979 -21.795273z" fill-rule="evenodd"/><path fill="#000000" d="m823.1896 185.57568l2.109375 -0.28125q0.359375 1.78125 1.234375 2.578125q0.875 0.796875 2.125 0.796875q1.484375 0 2.5 -1.03125q1.03125 -1.03125 1.03125 -2.5625q0 -1.453125 -0.953125 -2.390625q-0.9375 -0.953125 -2.40625 -0.953125q-0.59375 0 -1.484375 0.234375l0.234375 -1.84375q0.203125 0.015625 0.34375 0.015625q1.34375 0 2.421875 -0.703125q1.078125 -0.703125 1.078125 -2.15625q0 -1.171875 -0.796875 -1.921875q-0.78125 -0.765625 -2.015625 -0.765625q-1.234375 0 -2.0625 0.78125q-0.8125 0.765625 -1.046875 2.3125l-2.109375 -0.375q0.390625 -2.125 1.75 -3.28125q1.375 -1.171875 3.421875 -1.171875q1.40625 0 2.578125 0.609375q1.1875 0.59375 1.8125 1.640625q0.640625 1.046875 0.640625 2.21875q0 1.109375 -0.609375 2.03125q-0.59375 0.90625 -1.765625 1.4375q1.53125 0.359375 2.375 1.46875q0.84375 1.109375 0.84375 2.765625q0 2.25 -1.640625 3.828125q-1.640625 1.5625 -4.15625 1.5625q-2.265625 0 -3.765625 -1.34375q-1.484375 -1.359375 -1.6875 -3.5z" fill-rule="nonzero"/><path fill="#000000" fill-opacity="0.0" d="m808.51807 125.50214l20.315002 34.267715" fill-rule="evenodd"/><path stroke="#1f497d" stroke-width="1.0" stroke-linejoin="round" stroke-linecap="butt" d="m808.51807 125.50214l20.315002 34.267715" fill-rule="evenodd"/></g></svg>