<svg version="1.1" viewBox="0.0 0.0 886.0393700787401 159.93963254593177" fill="none" stroke="none" stroke-linecap="square" stroke-miterlimit="10" xmlns:xlink="http://www.w3.org/1999/xlink" xmlns="http://www.w3.org/2000/svg"><clipPath id="p.0"><path d="m0 0l886.03937 0l0 159.93964l-886.03937 0l0 -159.93964z" clip-rule="nonzero"/></clipPath><g clip-path="url(#p.0)"><path fill="#000000" fill-opacity="0.0" d="m0 0l886.03937 0l0 159.93964l-886.03937 0z" fill-rule="evenodd"/><path stroke="#9e9e9e" stroke-width="1.0" stroke-linecap="butt" d="m95.367455 49.98163l0 49.20472" fill-rule="nonzero"/><path stroke="#9e9e9e" stroke-width="1.0" stroke-linecap="butt" d="m171.36745 49.98163l0 49.20472" fill-rule="nonzero"/><path stroke="#9e9e9e" stroke-width="1.0" stroke-linecap="butt" d="m247.36745 49.98163l0 49.20472" fill-rule="nonzero"/><path stroke="#9e9e9e" stroke-width="1.0" stroke-linecap="butt" d="m323.36746 49.98163l0 49.20472" fill-rule="nonzero"/><path stroke="#9e9e9e" stroke-width="1.0" stroke-linecap="butt" d="m399.36746 49.98163l0 49.20472" fill-rule="nonzero"/><path stroke="#9e9e9e" stroke-width="1.0" stroke-linecap="butt" d="m475.36746 49.98163l0 49.20472" fill-rule="nonzero"/><path stroke="#9e9e9e" stroke-width="1.0" stroke-linecap="butt" d="m551.36743 49.98163l0 49.20472" fill-rule="nonzero"/><path stroke="#9e9e9e" stroke-width="1.0" stroke-linecap="butt" d="m627.36743 49.98163l0 49.20472" fill-rule="nonzero"/><path stroke="#9e9e9e" stroke-width="1.0" stroke-linecap="butt" d="m703.36743 49.98163l0 49.20472" fill-rule="nonzero"/><path stroke="#9e9e9e" stroke-width="1.0" stroke-linecap="butt" d="m779.36743 49.98163l0 49.20472" fill-rule="nonzero"/><path stroke="#9e9e9e" stroke-width="1.0" stroke-linecap="butt" d="m855.36743 49.98163l0 49.20472" fill-rule="nonzero"/><path stroke="#9e9e9e" stroke-width="1.0" stroke-linecap="butt" d="m94.86877 50.480316l760.9974 0" fill-rule="nonzero"/><path stroke="#9e9e9e" stroke-width="1.0" stroke-linecap="butt" d="m94.86877 98.68767l760.9974 0" fill-rule="nonzero"/><path fill="#000000" d="m105.679955 78.55157l2.03125 -0.1875q0.25 1.421875 0.96875 2.078125q0.734375 0.640625 1.875 0.640625q0.96875 0 1.703125 -0.4375q0.734375 -0.453125 1.203125 -1.203125q0.46875 -0.75 0.78125 -2.015625q0.328125 -1.265625 0.328125 -2.578125q0 -0.140625 -0.015625 -0.421875q-0.640625 1.015625 -1.734375 1.640625q-1.09375 0.625 -2.375 0.625q-2.125 0 -3.609375 -1.546875q-1.46875 -1.546875 -1.46875 -4.078125q0 -2.609375 1.53125 -4.203125q1.546875 -1.59375 3.875 -1.59375q1.671875 0 3.0625 0.90625q1.390625 0.890625 2.109375 2.5625q0.71875 1.671875 0.71875 4.84375q0 3.28125 -0.71875 5.234375q-0.71875 1.953125 -2.125 2.984375q-1.40625 1.015625 -3.3125 1.015625q-2.015625 0 -3.296875 -1.125q-1.265625 -1.125 -1.53125 -3.140625zm8.640625 -7.59375q0 -1.8125 -0.96875 -2.875q-0.96875 -1.0625 -2.328125 -1.0625q-1.40625 0 -2.453125 1.15625q-1.03125 1.140625 -1.03125 2.96875q0 1.640625 0.984375 2.671875q0.984375 1.015625 2.4375 1.015625q1.46875 0 2.40625 -1.015625q0.953125 -1.03125 0.953125 -2.859375z" fill-rule="nonzero"/><path fill="#000000" d="m184.61745 73.20782q-1.3125 -0.484375 -1.953125 -1.375q-0.625 -0.890625 -0.625 -2.140625q0 -1.875 1.34375 -3.140625q1.34375 -1.28125 3.578125 -1.28125q2.25 0 3.625 1.3125q1.375 1.296875 1.375 3.171875q0 1.203125 -0.625 2.09375q-0.625 0.875 -1.90625 1.359375q1.578125 0.515625 2.40625 1.671875q0.828125 1.140625 0.828125 2.734375q0 2.203125 -1.5625 3.703125q-1.5625 1.5 -4.09375 1.5q-2.546875 0 -4.109375 -1.5q-1.5625 -1.515625 -1.5625 -3.765625q0 -1.671875 0.84375 -2.796875q0.859375 -1.140625 2.4375 -1.546875zm-0.421875 -3.578125q0 1.21875 0.78125 2.0q0.78125 0.765625 2.03125 0.765625q1.21875 0 2.0 -0.765625q0.78125 -0.765625 0.78125 -1.890625q0 -1.15625 -0.8125 -1.9375q-0.796875 -0.796875 -1.984375 -0.796875q-1.203125 0 -2.0 0.78125q-0.796875 0.765625 -0.796875 1.84375zm-0.6875 7.9375q0 0.890625 0.421875 1.734375q0.4375 0.84375 1.28125 1.3125q0.84375 0.46875 1.8125 0.46875q1.515625 0 2.5 -0.96875q0.984375 -0.984375 0.984375 -2.484375q0 -1.515625 -1.015625 -2.515625q-1.015625 -1.0 -2.53125 -1.0q-1.5 0 -2.484375 0.984375q-0.96875 0.984375 -0.96875 2.46875z" fill-rule="nonzero"/><path fill="#000000" d="m257.5081 67.58282l0 -2.015625l11.125 0l0 1.640625q-1.640625 1.734375 -3.265625 4.640625q-1.609375 2.890625 -2.484375 5.953125q-0.625 2.15625 -0.8125 4.71875l-2.15625 0q0.03125 -2.03125 0.78125 -4.890625q0.765625 -2.875 2.1875 -5.546875q1.4375 -2.671875 3.03125 -4.5l-8.40625 0z" fill-rule="nonzero"/><path fill="#000000" d="m344.30496 69.55157l-2.09375 0.15625q-0.28125 -1.234375 -0.796875 -1.796875q-0.859375 -0.90625 -2.109375 -0.90625q-1.0 0 -1.765625 0.5625q-1.0 0.71875 -1.578125 2.125q-0.5625 1.390625 -0.59375 3.96875q0.765625 -1.15625 1.859375 -1.71875q1.109375 -0.5625 2.3125 -0.5625q2.109375 0 3.59375 1.546875q1.484375 1.546875 1.484375 4.015625q0 1.609375 -0.703125 3.0q-0.6875 1.390625 -1.90625 2.140625q-1.21875 0.734375 -2.765625 0.734375q-2.640625 0 -4.3125 -1.9375q-1.65625 -1.953125 -1.65625 -6.40625q0 -4.96875 1.84375 -7.234375q1.59375 -1.96875 4.3125 -1.96875q2.03125 0 3.328125 1.140625q1.296875 1.125 1.546875 3.140625zm-8.609375 7.40625q0 1.078125 0.453125 2.078125q0.46875 1.0 1.296875 1.53125q0.84375 0.515625 1.75 0.515625q1.34375 0 2.296875 -1.078125q0.96875 -1.078125 0.96875 -2.9375q0 -1.78125 -0.953125 -2.796875q-0.953125 -1.03125 -2.390625 -1.03125q-1.421875 0 -2.421875 1.03125q-1.0 1.015625 -1.0 2.6875z" fill-rule="nonzero"/><path fill="#000000" d="m409.36746 78.02032l2.21875 -0.1875q0.234375 1.609375 1.125 2.4375q0.90625 0.8125 2.171875 0.8125q1.53125 0 2.578125 -1.140625q1.0625 -1.15625 1.0625 -3.0625q0 -1.796875 -1.015625 -2.84375q-1.015625 -1.046875 -2.65625 -1.046875q-1.015625 0 -1.84375 0.46875q-0.8125 0.453125 -1.28125 1.203125l-1.984375 -0.265625l1.65625 -8.828125l8.546875 0l0 2.015625l-6.859375 0l-0.921875 4.625q1.546875 -1.078125 3.25 -1.078125q2.25 0 3.796875 1.5625q1.546875 1.546875 1.546875 4.0q0 2.328125 -1.359375 4.03125q-1.65625 2.09375 -4.515625 2.09375q-2.34375 0 -3.828125 -1.3125q-1.484375 -1.3125 -1.6875 -3.484375z" fill-rule="nonzero"/><path fill="#000000" d="m492.1331 82.52032l0 -4.109375l-7.453125 0l0 -1.9375l7.828125 -11.140625l1.734375 0l0 11.140625l2.3125 0l0 1.9375l-2.3125 0l0 4.109375l-2.109375 0zm0 -6.046875l0 -7.75l-5.390625 7.75l5.390625 0z" fill-rule="nonzero"/><path fill="#000000" d="m561.38306 77.98907l2.109375 -0.28125q0.359375 1.78125 1.234375 2.578125q0.875 0.796875 2.125 0.796875q1.484375 0 2.5 -1.03125q1.03125 -1.03125 1.03125 -2.5625q0 -1.453125 -0.953125 -2.390625q-0.9375 -0.953125 -2.40625 -0.953125q-0.59375 0 -1.484375 0.234375l0.234375 -1.84375q0.203125 0.015625 0.34375 0.015625q1.34375 0 2.421875 -0.703125q1.078125 -0.703125 1.078125 -2.15625q0 -1.171875 -0.796875 -1.921875q-0.78125 -0.765625 -2.015625 -0.765625q-1.234375 0 -2.0625 0.78125q-0.8125 0.765625 -1.046875 2.3125l-2.109375 -0.375q0.390625 -2.125 1.75 -3.28125q1.375 -1.171875 3.421875 -1.171875q1.40625 0 2.578125 0.609375q1.1875 0.59375 1.8125 1.640625q0.640625 1.046875 0.640625 2.21875q0 1.109375 -0.609375 2.03125q-0.59375 0.90625 -1.765625 1.4375q1.53125 0.359375 2.375 1.46875q0.84375 1.109375 0.84375 2.765625q0 2.25 -1.640625 3.828125q-1.640625 1.5625 -4.15625 1.5625q-2.265625 0 -3.765625 -1.34375q-1.484375 -1.359375 -1.6875 -3.5z" fill-rule="nonzero"/><path fill="#000000" d="m648.44556 80.48907l0 2.03125l-11.34375 0q-0.03125 -0.765625 0.234375 -1.46875q0.4375 -1.15625 1.390625 -2.28125q0.953125 -1.125 2.765625 -2.609375q2.796875 -2.296875 3.78125 -3.625q0.984375 -1.34375 0.984375 -2.546875q0 -1.25 -0.90625 -2.109375q-0.890625 -0.859375 -2.328125 -0.859375q-1.515625 0 -2.4375 0.921875q-0.90625 0.90625 -0.921875 2.515625l-2.171875 -0.21875q0.21875 -2.421875 1.671875 -3.6875q1.453125 -1.28125 3.90625 -1.28125q2.46875 0 3.90625 1.375q1.453125 1.359375 1.453125 3.390625q0 1.03125 -0.421875 2.03125q-0.421875 1.0 -1.40625 2.109375q-0.96875 1.09375 -3.25 3.015625q-1.890625 1.59375 -2.4375 2.15625q-0.53125 0.5625 -0.890625 1.140625l8.421875 0z" fill-rule="nonzero"/><path fill="#000000" d="m721.30493 82.52032l-2.109375 0l0 -13.4375q-0.75 0.71875 -2.0 1.453125q-1.234375 0.71875 -2.21875 1.078125l0 -2.03125q1.78125 -0.828125 3.09375 -2.015625q1.328125 -1.1875 1.875 -2.296875l1.359375 0l0 17.25z" fill-rule="nonzero"/><path fill="#000000" d="m797.30493 82.52032l-2.109375 0l0 -13.4375q-0.75 0.71875 -2.0 1.453125q-1.234375 0.71875 -2.21875 1.078125l0 -2.03125q1.78125 -0.828125 3.09375 -2.015625q1.328125 -1.1875 1.875 -2.296875l1.359375 0l0 17.25zm5.4101562 -8.46875q0 -3.046875 0.625 -4.90625q0.625 -1.859375 1.859375 -2.859375q1.234375 -1.015625 3.109375 -1.015625q1.390625 0 2.421875 0.5625q1.046875 0.546875 1.71875 1.59375q0.6875 1.046875 1.078125 2.5625q0.390625 1.5 0.390625 4.0625q0 3.015625 -0.625 4.875q-0.625 1.859375 -1.859375 2.875q-1.234375 1.015625 -3.125 1.015625q-2.484375 0 -3.890625 -1.78125q-1.703125 -2.15625 -1.703125 -6.984375zm2.171875 0q0 4.21875 0.984375 5.625q0.984375 1.40625 2.4375 1.40625q1.453125 0 2.4375 -1.40625q1.0 -1.40625 1.0 -5.625q0 -4.25 -1.0 -5.640625q-0.984375 -1.390625 -2.453125 -1.390625q-1.453125 0 -2.328125 1.21875q-1.078125 1.578125 -1.078125 5.8125z" fill-rule="nonzero"/><path fill="#000000" fill-opacity="0.0" d="m129.23622 83.66404c6.5901184 7.0026245 28.21347 41.809715 39.54068 42.015747c11.327209 0.20603943 23.685486 -33.982933 28.422577 -40.779526" fill-rule="evenodd"/><path stroke="#1f497d" stroke-width="1.0" stroke-linejoin="round" stroke-linecap="butt" d="m131.44243 86.28655l0.022781372 0.028686523c0.2870636 0.36460114 0.5864868 0.7506561 0.897522 1.1562347c1.2440643 1.6223373 2.673584 3.5572205 4.239029 5.682785c3.1309052 4.251129 6.8056335 9.264954 10.628387 14.066376c7.645508 9.6028595 15.883148 18.35614 21.546753 18.459152c5.6635895 0.103019714 11.584976 -8.392715 16.682587 -17.763779c2.5487976 -4.6855316 4.8916473 -9.58989 6.893387 -13.747658c1.0008545 -2.078888 1.9164429 -3.9711227 2.7298431 -5.5560226c0.10168457 -0.19812012 0.20175171 -0.39143372 0.30020142 -0.5797043l0.09068298 -0.17156982" fill-rule="evenodd"/><path fill="#1f497d" stroke="#1f497d" stroke-width="1.0" stroke-linecap="butt" d="m131.44243 86.28655l1.5845337 0.13660431l-2.8496246 -1.6404266l1.1284943 3.0883484z" fill-rule="evenodd"/><path fill="#1f497d" stroke="#1f497d" stroke-width="1.0" stroke-linecap="butt" d="m195.4736 87.86105l0.40524292 1.5379105l0.5844269 -3.2357101l-2.5275726 2.103035z" fill-rule="evenodd"/><path fill="#000000" fill-opacity="0.0" d="m211.96588 83.66404c6.5901184 7.0026245 28.21347 41.809715 39.54068 42.015747c11.327209 0.20603943 23.685486 -33.982933 28.422577 -40.779526" fill-rule="evenodd"/><path stroke="#1f497d" stroke-width="1.0" stroke-linejoin="round" stroke-linecap="butt" d="m214.1721 86.28655l0.022750854 0.028686523c0.28707886 0.36460114 0.58651733 0.7506561 0.897522 1.1562347c1.2440948 1.6223373 2.6735992 3.5572205 4.239044 5.682785c3.1309357 4.251129 6.8056335 9.264954 10.628387 14.066376c7.645508 9.6028595 15.883163 18.35614 21.546753 18.459152c5.6636047 0.103019714 11.584961 -8.392715 16.682587 -17.763779c2.5487976 -4.6855316 4.891632 -9.58989 6.8933716 -13.747658c1.000885 -2.078888 1.9164429 -3.9711227 2.7298584 -5.5560226c0.10168457 -0.19812012 0.20175171 -0.39143372 0.30020142 -0.5797043l0.09069824 -0.17156982" fill-rule="evenodd"/><path fill="#1f497d" stroke="#1f497d" stroke-width="1.0" stroke-linecap="butt" d="m214.17209 86.28655l1.5845337 0.13660431l-2.84964 -1.6404266l1.1285095 3.0883408z" fill-rule="evenodd"/><path fill="#1f497d" stroke="#1f497d" stroke-width="1.0" stroke-linecap="butt" d="m278.20328 87.86105l0.4052124 1.5379105l0.58444214 -3.2357101l-2.527588 2.103035z" fill-rule="evenodd"/><path fill="#000000" fill-opacity="0.0" d="m294.69553 83.66404c6.5901184 7.0026245 28.21347 41.809715 39.54068 42.015747c11.327209 0.20603943 23.685486 -33.982933 28.422577 -40.779526" fill-rule="evenodd"/><path stroke="#1f497d" stroke-width="1.0" stroke-linejoin="round" stroke-linecap="butt" d="m296.90176 86.28655l0.022766113 0.028686523c0.28707886 0.36460114 0.5864868 0.7506561 0.89749146 1.1562347c1.2441101 1.6223373 2.6736145 3.5572205 4.2390747 5.682785c3.1309204 4.251129 6.8056335 9.264954 10.628387 14.066376c7.6454773 9.6028595 15.883148 18.35614 21.546722 18.459152c5.6636353 0.103019714 11.584991 -8.392715 16.682587 -17.763779c2.5487976 -4.6855316 4.891693 -9.58989 6.8934326 -13.747658c1.0008545 -2.078888 1.9164124 -3.9711227 2.7297974 -5.5560226c0.10168457 -0.19812012 0.20178223 -0.39143372 0.30020142 -0.5797043l0.090667725 -0.17156982" fill-rule="evenodd"/><path fill="#1f497d" stroke="#1f497d" stroke-width="1.0" stroke-linecap="butt" d="m296.90176 86.28655l1.5845032 0.13660431l-2.8496094 -1.6404266l1.128479 3.0883408z" fill-rule="evenodd"/><path fill="#1f497d" stroke="#1f497d" stroke-width="1.0" stroke-linecap="butt" d="m360.93292 87.86106l0.40524292 1.5379028l0.5844116 -3.2357101l-2.5275574 2.1030426z" fill-rule="evenodd"/><path fill="#000000" fill-opacity="0.0" d="m423.26773 83.66404c6.590088 7.0026245 28.21347 41.809715 39.54068 42.015747c11.327209 0.20603943 23.685455 -33.982933 28.422546 -40.779526" fill-rule="evenodd"/><path stroke="#1f497d" stroke-width="1.0" stroke-linejoin="round" stroke-linecap="butt" d="m425.4739 86.28655l0.022766113 0.028686523c0.28707886 0.36460114 0.58654785 0.7506561 0.8975525 1.1562347c1.2440491 1.6223373 2.6735535 3.5572205 4.2390137 5.682785c3.1309204 4.251129 6.805664 9.264954 10.628418 14.066376c7.645508 9.6028595 15.883118 18.35614 21.546753 18.459152c5.6636353 0.103019714 11.584961 -8.392715 16.682556 -17.763779c2.5488281 -4.6855316 4.891693 -9.58989 6.8934326 -13.747658c1.0008545 -2.078888 1.9164124 -3.9711227 2.729828 -5.5560226c0.10165405 -0.19812012 0.20175171 -0.39143372 0.3001709 -0.5797043l0.09069824 -0.17156982" fill-rule="evenodd"/><path fill="#1f497d" stroke="#1f497d" stroke-width="1.0" stroke-linecap="butt" d="m425.47394 86.28655l1.5845032 0.13661194l-2.8496094 -1.6404266l1.128479 3.0883408z" fill-rule="evenodd"/><path fill="#1f497d" stroke="#1f497d" stroke-width="1.0" stroke-linecap="butt" d="m489.5051 87.86106l0.40524292 1.5379028l0.5844116 -3.2357101l-2.5275574 2.1030426z" fill-rule="evenodd"/><path fill="#000000" fill-opacity="0.0" d="m505.99738 83.66404c6.590088 7.0026245 28.213501 41.809715 39.54071 42.015747c11.327209 0.20603943 23.685425 -33.982933 28.422546 -40.779526" fill-rule="evenodd"/><path stroke="#1f497d" stroke-width="1.0" stroke-linejoin="round" stroke-linecap="butt" d="m508.20358 86.28655l0.022766113 0.028686523c0.28704834 0.36460114 0.58651733 0.7506561 0.8975525 1.1562347c1.2440491 1.6223373 2.6735535 3.5572205 4.2390137 5.682785c3.1309204 4.251129 6.805664 9.264954 10.628418 14.066376c7.645508 9.6028595 15.883118 18.35614 21.546753 18.459152c5.663574 0.103019714 11.584961 -8.392715 16.682556 -17.763779c2.548767 -4.6855316 4.8916626 -9.58989 6.8934326 -13.747658c1.0008545 -2.078888 1.9163818 -3.9711227 2.7297974 -5.5560226c0.10168457 -0.19812012 0.20178223 -0.39143372 0.3001709 -0.5797043l0.09069824 -0.17156982" fill-rule="evenodd"/><path fill="#1f497d" stroke="#1f497d" stroke-width="1.0" stroke-linecap="butt" d="m508.20358 86.28655l1.5845337 0.13661194l-2.84964 -1.6404266l1.1285095 3.0883408z" fill-rule="evenodd"/><path fill="#1f497d" stroke="#1f497d" stroke-width="1.0" stroke-linecap="butt" d="m572.23474 87.86106l0.40527344 1.5379028l0.5844116 -3.2357101l-2.527588 2.1030426z" fill-rule="evenodd"/><path fill="#000000" fill-opacity="0.0" d="m588.72705 83.66404c6.590088 7.0026245 28.21344 41.809715 39.54065 42.015747c11.327209 0.20603943 23.685486 -33.982933 28.422607 -40.779526" fill-rule="evenodd"/><path stroke="#1f497d" stroke-width="1.0" stroke-linejoin="round" stroke-linecap="butt" d="m590.9332 86.28655l0.022766113 0.028686523c0.28704834 0.36460114 0.58654785 0.7506561 0.897583 1.1562347c1.2440186 1.6223373 2.673523 3.5572205 4.2390137 5.682785c3.1308594 4.251129 6.805603 9.264954 10.628357 14.066376c7.645508 9.6028595 15.883118 18.35614 21.546753 18.459152c5.6636353 0.103019714 11.584961 -8.392715 16.682617 -17.763779c2.548767 -4.6855316 4.8916626 -9.58989 6.8933716 -13.747658c1.0008545 -2.078888 1.9164429 -3.9711227 2.7298584 -5.5560226c0.101623535 -0.19812012 0.20178223 -0.39143372 0.3001709 -0.5797043l0.09069824 -0.17156982" fill-rule="evenodd"/><path fill="#1f497d" stroke="#1f497d" stroke-width="1.0" stroke-linecap="butt" d="m590.9332 86.28655l1.5845337 0.13661194l-2.8496094 -1.6404266l1.128479 3.0883408z" fill-rule="evenodd"/><path fill="#1f497d" stroke="#1f497d" stroke-width="1.0" stroke-linecap="butt" d="m654.9644 87.86106l0.4052124 1.5379028l0.58447266 -3.2357101l-2.527588 2.1030426z" fill-rule="evenodd"/><path fill="#000000" fill-opacity="0.0" d="m671.45667 83.66404c6.590149 7.0026245 28.213501 41.809715 39.54071 42.015747c11.327209 0.20603943 23.685486 -33.982933 28.422546 -40.779526" fill-rule="evenodd"/><path stroke="#1f497d" stroke-width="1.0" stroke-linejoin="round" stroke-linecap="butt" d="m673.6629 86.28655l0.022766113 0.028686523c0.28704834 0.36460114 0.58654785 0.7506561 0.897522 1.1562347c1.2440796 1.6223373 2.673584 3.5572205 4.2390137 5.682785c3.1309814 4.251129 6.805664 9.264954 10.628418 14.066376c7.645508 9.6028595 15.883179 18.35614 21.546753 18.459152c5.663574 0.103019714 11.584961 -8.392715 16.682556 -17.763779c2.5488281 -4.6855316 4.8916626 -9.58989 6.8933716 -13.747658c1.0009155 -2.078888 1.9164429 -3.9711227 2.7298584 -5.5560226c0.10168457 -0.19812012 0.20178223 -0.39143372 0.3001709 -0.5797043l0.09075928 -0.17156982" fill-rule="evenodd"/><path fill="#1f497d" stroke="#1f497d" stroke-width="1.0" stroke-linecap="butt" d="m673.6629 86.28655l1.5845337 0.13660431l-2.8496094 -1.6404266l1.128479 3.0883484z" fill-rule="evenodd"/><path fill="#1f497d" stroke="#1f497d" stroke-width="1.0" stroke-linecap="butt" d="m737.6941 87.86105l0.4052124 1.5379105l0.5844116 -3.2357101l-2.5275269 2.1030273z" fill-rule="evenodd"/><path fill="#000000" fill-opacity="0.0" d="m746.77167 83.66404c6.590088 7.0026245 28.21344 41.809715 39.54065 42.015747c11.327209 0.20603943 23.685486 -33.982933 28.422607 -40.779526" fill-rule="evenodd"/><path stroke="#1f497d" stroke-width="1.0" stroke-linejoin="round" stroke-linecap="butt" d="m748.97784 86.28655l0.022827148 0.028686523c0.28704834 0.36460114 0.5864258 0.7506561 0.89746094 1.1562347c1.2440796 1.6223373 2.673645 3.5572205 4.2390747 5.682785c3.1309204 4.251129 6.805603 9.264954 10.628357 14.066376c7.645508 9.6028595 15.88324 18.35614 21.546753 18.459152c5.663574 0.103019714 11.585022 -8.392715 16.682617 -17.763779c2.548767 -4.6855316 4.8916016 -9.58989 6.8933716 -13.747658c1.0008545 -2.078888 1.9163818 -3.9711227 2.7297974 -5.5560226c0.10168457 -0.19812012 0.20178223 -0.39143372 0.30023193 -0.5797043l0.09069824 -0.17156982" fill-rule="evenodd"/><path fill="#1f497d" stroke="#1f497d" stroke-width="1.0" stroke-linecap="butt" d="m748.97784 86.286545l1.5845337 0.13660431l-2.8496094 -1.640419l1.128479 3.0883408z" fill-rule="evenodd"/><path fill="#1f497d" stroke="#1f497d" stroke-width="1.0" stroke-linecap="butt" d="m813.00903 87.86105l0.4052124 1.5379105l0.58447266 -3.2357101l-2.527588 2.1030273z" fill-rule="evenodd"/><path fill="#000000" fill-opacity="0.0" d="m769.32806 67.608925l0 0c0 -21.16077 20.468018 -38.314964 45.716553 -38.314964l0 0c25.248535 0 45.716553 17.154192 45.716553 38.314964l0 0c0 21.160767 -20.468018 38.314957 -45.716553 38.314957l0 0c-25.248535 0 -45.716553 -17.15419 -45.716553 -38.314957z" fill-rule="evenodd"/><path stroke="#ff0000" stroke-width="3.0" stroke-linejoin="round" stroke-linecap="butt" d="m769.32806 67.608925l0 0c0 -21.16077 20.468018 -38.314964 45.716553 -38.314964l0 0c25.248535 0 45.716553 17.154192 45.716553 38.314964l0 0c0 21.160767 -20.468018 38.314957 -45.716553 38.314957l0 0c-25.248535 0 -45.716553 -17.15419 -45.716553 -38.314957z" fill-rule="evenodd"/><path fill="#000000" fill-opacity="0.0" d="m27.821522 50.480316l91.433075 0l0 48.472443l-91.433075 0z" fill-rule="evenodd"/><path fill="#000000" d="m37.97777 74.14532q0 -4.265625 2.296875 -6.6875q2.296875 -2.421875 5.9375 -2.421875q2.375 0 4.28125 1.140625q1.921875 1.125 2.921875 3.171875q1.0 2.03125 1.0 4.609375q0 2.609375 -1.0625 4.671875q-1.046875 2.0625 -2.984375 3.125q-1.9375 1.0625 -4.171875 1.0625q-2.421875 0 -4.34375 -1.171875q-1.90625 -1.171875 -2.890625 -3.203125q-0.984375 -2.03125 -0.984375 -4.296875zm2.34375 0.046875q0 3.09375 1.671875 4.890625q1.671875 1.78125 4.1875 1.78125q2.578125 0 4.234375 -1.796875q1.65625 -1.8125 1.65625 -5.125q0 -2.09375 -0.71875 -3.65625q-0.703125 -1.578125 -2.078125 -2.4375q-1.359375 -0.859375 -3.046875 -0.859375q-2.421875 0 -4.171875 1.65625q-1.734375 1.65625 -1.734375 5.546875zm20.777344 13.375q-1.734375 -2.203125 -2.953125 -5.15625q-1.203125 -2.953125 -1.203125 -6.109375q0 -2.796875 0.90625 -5.34375q1.046875 -2.96875 3.25 -5.90625l1.515625 0q-1.421875 2.4375 -1.875 3.46875q-0.71875 1.625 -1.125 3.375q-0.5 2.203125 -0.5 4.40625q0 5.640625 3.5 11.265625l-1.515625 0zm3.9609413 -5.046875l0 -12.453125l1.90625 0l0 1.78125q1.375 -2.0625 3.953125 -2.0625q1.125 0 2.0625 0.40625q0.953125 0.40625 1.421875 1.0625q0.46875 0.65625 0.65625 1.5625q0.125 0.578125 0.125 2.046875l0 7.65625l-2.109375 0l0 -7.578125q0 -1.28125 -0.25 -1.921875q-0.25 -0.640625 -0.875 -1.015625q-0.625 -0.390625 -1.46875 -0.390625q-1.34375 0 -2.328125 0.859375q-0.984375 0.859375 -0.984375 3.25l0 6.796875l-2.109375 0zm14.738281 5.046875l-1.515625 0q3.5 -5.625 3.5 -11.265625q0 -2.203125 -0.5 -4.359375q-0.390625 -1.765625 -1.109375 -3.375q-0.453125 -1.0625 -1.890625 -3.515625l1.515625 0q2.203125 2.9375 3.25 5.90625q0.90625 2.546875 0.90625 5.34375q0 3.15625 -1.21875 6.109375q-1.203125 2.953125 -2.9375 5.15625z" fill-rule="nonzero"/></g></svg>